<?xml version="1.0" encoding="utf-8"?>
<!-- Generator: Adobe Illustrator 24.0.2, SVG Export Plug-In . SVG Version: 6.00 Build 0)  -->
<svg version="1.1" id="Camada_1" xmlns="http://www.w3.org/2000/svg" xmlns:xlink="http://www.w3.org/1999/xlink" x="0px" y="0px"
	 viewBox="0 0 2000 913.19" style="enable-background:new 0 0 2000 913.19;" xml:space="preserve">
<style type="text/css">
	.st0{fill:#D8A35D;}
</style>
<g>
	<g>
		<path class="st0" d="M299.3,5.62c-7.27,12.05-18.92,22.29-34.92,30.7c-16.01,8.42-31.39,12.63-46.14,12.63
			c-14.55,0-35.02-4.26-61.42-12.78c-26.19-8.52-43.13-12.79-50.82-12.79c-14.34,0-26.66,5.51-36.95,16.54
			c-10.29,11.02-15.43,24.32-15.43,39.9c0,15.18,4.72,27.6,14.18,37.26c9.46,9.66,21.19,17.26,35.23,22.77
			c14.03,5.51,35.91,12.42,65.63,20.73c29.72,8.1,53.62,16.05,71.71,23.84c18.08,7.79,33.41,19.43,45.98,34.92
			c12.58,15.48,18.87,35.8,18.87,60.95c0,37.62-15.43,71.08-46.3,100.39c-30.87,29.3-69.06,43.95-114.58,43.95
			c-41.57,0-76.02-10.91-103.35-32.73c-27.33-21.83-41-47.8-41-77.94c0-22.24,8-40.79,24.01-55.65c16-14.86,36.68-22.29,62.04-22.29
			c26.6,0,49.11,7.33,67.5,21.98c18.4,14.65,27.59,32.07,27.59,52.23c0,13.72-4.73,24.99-14.18,33.82
			c-9.46,8.84-20.84,13.25-34.14,13.25c-22.03,0-38.45-10.18-49.26-30.55l7.8-4.37c7.89,8.11,16.62,12.15,26.19,12.15
			c10.18,0,18.65-3.58,25.41-10.75c6.75-7.17,10.13-16.17,10.13-26.98c0-13.5-5.67-24.78-16.99-33.82c-11.33-9.04-25-13.56-41-13.56
			c-18.71,0-34.24,6.86-46.61,20.58c-12.37,13.72-18.55,30.14-18.55,49.26c0,25.15,11.06,46.76,33.2,64.85
			c22.14,18.08,50.04,27.12,83.71,27.12c35.95,0,65.88-11.29,89.79-33.86c23.9-22.56,35.85-49.03,35.85-79.4
			c0-20.8-5.55-37.65-16.67-50.54c-11.12-12.9-24.41-22.57-39.89-29.02c-15.47-6.45-37.04-13.59-64.7-21.44
			c-27.66-7.85-49.23-14.99-64.71-21.44c-15.49-6.45-28.48-15.8-38.97-28.06C37.05,135.2,31.8,119.2,31.8,99.46
			c0-27.02,10.7-50.24,32.12-69.68c21.41-19.43,46.24-29.15,74.51-29.15c13.1,0,31.8,3.43,56.12,10.29
			c24.53,6.65,42.19,9.97,53,9.97c17.67,0,33.05-6.95,46.14-20.89L299.3,5.62z"/>
		<path class="st0" d="M341.7,366.33c27.02-38.58,49.15-63.5,66.41-74.77c17.24-11.26,35.33-16.89,54.24-16.89
			c18.08,0,32.27,4.79,42.56,14.37c10.29,9.59,15.43,22.92,15.43,39.99c0,24.37-9.77,46.6-29.3,66.7
			c-19.54,20.1-42.3,30.15-68.28,30.15c-16.83,0-30.3-5.04-40.37-15.12c-10.08-10.08-15.12-22.91-15.12-38.51
			c0-8.31,0.62-15.79,1.87-22.44c-3.12,3.53-8.83,11.64-17.15,24.32L341.7,366.33z M443.02,405.3c15.8,0,28.37-5.71,37.72-17.15
			c9.35-11.43,14.03-26.61,14.03-45.52c0-16.41-4.36-29.26-13.09-38.5c-8.73-9.25-20.27-13.88-34.61-13.88
			c-15.17,0-27.28,5.51-36.32,16.52c-9.04,11.02-13.56,26.4-13.56,46.14C397.19,387.84,412.47,405.3,443.02,405.3z M555.57,368.2
			c-16.63,23.69-32.32,39.33-47.08,46.92c-14.76,7.58-29.52,12.21-44.27,13.87l-2.5-7.17c34.3-7.68,62.14-28.06,83.56-61.11
			L555.57,368.2z"/>
		<path class="st0" d="M544.04,363.84c3.95-6.24,7.89-12.83,11.85-19.8c3.95-6.97,9.66-18.24,17.15-33.82
			c7.48-15.59,11.22-24.53,11.22-26.82V143.41c0-24.31,8.05-45.82,24.16-64.53c16.11-18.71,34.45-28.06,55.03-28.06
			c24.32,0,36.48,11.34,36.48,33.98c0,19.96-5.61,43.13-16.83,69.53c-11.22,26.39-33.78,66.4-67.66,120.03v130.32
			c9.77-0.62,18.6-3.53,26.5-8.73c7.9-5.19,19.54-18.91,34.92-41.15l9.67,7.79c-24.11,39.9-47.81,59.86-71.08,59.86v107.87
			c0,23.91-6.6,43.08-19.8,57.53c-13.2,14.45-29.57,21.67-49.1,21.67c-20.58,0-36.68-8.94-48.33-26.82l25.57-25.25l4.99,4.36
			c-1.25,3.95-1.87,6.96-1.87,9.04c0,7.9,2.49,14.66,7.48,20.27c4.99,5.61,11.43,8.42,19.33,8.42c20.37,0,30.56-20.68,30.56-62.05
			V422.45c-10.39-1.67-20.99-6.34-31.8-14.03c2.07-8.93,6.75-17.87,14.03-26.81c5.82,9.35,11.75,15.17,17.77,17.46v-82.62
			c-8.32,20.16-18.71,38.76-31.18,55.8L544.04,363.84z M615.43,243.81c39.28-62.98,58.93-113.37,58.93-151.21
			c0-18.91-6.86-28.37-20.58-28.37c-10.19,0-19.12,5.35-26.81,16.05c-7.69,10.71-11.54,24.79-11.54,42.24V243.81z"/>
		<path class="st0" d="M802.18,368.2c-11.85,17.88-24,31.6-36.48,41.16c-12.47,9.56-23.69,14.34-33.67,14.34
			c-11.22,0-18.3-3.01-21.2-9.05c-2.91-6.03-4.37-16.62-4.37-31.79v-56.74c-6.44,16.41-15.8,32.42-28.06,48.01l-9.67-7.79
			c19.33-26.82,31.9-52.79,37.72-77.94l31.18-16.52v98.83c0,12.26,0.57,20.37,1.72,24.32c1.14,3.95,3.99,5.92,8.57,5.92
			c9.35,0,24.42-13.61,45.21-40.84L802.18,368.2z M748.56,211.07l-21.82,27.75l-22.13-27.75l22.13-26.81L748.56,211.07z"/>
		<path class="st0" d="M862.04,266.88c16.21,8.31,29.2,20.48,38.97,36.48c9.77,16.01,14.65,32.11,14.65,48.32
			c0,19.33-5.67,36.17-16.99,50.51c-11.33,14.34-25.83,21.51-43.5,21.51c-8.73,0-18.19-2.91-28.37-8.73
			c-10.19-5.82-19.01-14.34-26.5-25.56c6.44-9.98,15.79-18.49,28.06-25.56l2.49,3.12c-0.42,2.08-0.63,5.09-0.63,9.04
			c0,8.93,3.09,16.89,9.3,23.84c6.21,6.97,13.23,10.44,21.1,10.44c9.73,0,17.68-4.1,23.89-12.31c6.2-8.21,9.31-18.55,9.31-31.02
			c0-25.77-15.28-48.74-45.83-68.9l-26.5,41.77c-10.6,17.05-18.29,28.48-23.07,34.3l-9.66-7.79c21.2-31.38,42.3-69.63,63.29-114.73
			l7.48,0.62L862.04,266.88z M968.66,368.2c-22.24,36.58-50.3,56.43-84.18,59.55l-1.87-5.93c14.96-3.53,27.69-9.4,38.19-17.62
			c10.5-8.21,23.33-22.7,38.5-43.49L968.66,368.2z"/>
		<path class="st0" d="M1107.72,367.27c-23.49,37.62-48.33,56.43-74.51,56.43c-12.47,0-20.27-2.95-23.38-8.83
			c-3.12-5.89-4.67-15.34-4.67-28.35v-74.97c-13.93,23.51-27.54,44.06-40.84,61.65l-10.5-7.31c7.72-11.4,14.29-21.36,19.72-29.86
			c5.43-8.51,12.05-19.65,19.88-33.45c7.82-13.79,11.74-21.52,11.74-23.17V151.83l31.18-30.55v118.34l47.88-75.09l12.29,9.12
			l-60.17,94.79v95.93c0,14.59,0.62,24.32,1.87,29.22c1.25,4.9,4.68,7.34,10.29,7.34c14.13,0,30.97-13.92,50.51-41.77
			L1107.72,367.27z"/>
		<path class="st0" d="M1228.06,368.2c-11.85,17.88-24,31.6-36.48,41.16c-12.47,9.56-23.7,14.34-33.67,14.34
			c-11.23,0-18.3-3.01-21.2-9.05c-2.91-6.03-4.37-16.62-4.37-31.79v-56.74c-6.44,16.41-15.8,32.42-28.06,48.01l-9.66-7.79
			c19.33-26.82,31.9-52.79,37.72-77.94l31.17-16.52v98.83c0,12.26,0.58,20.37,1.72,24.32c1.14,3.95,3.99,5.92,8.57,5.92
			c9.35,0,24.42-13.61,45.21-40.84L1228.06,368.2z M1174.43,211.07l-21.82,27.75l-22.14-27.75l22.14-26.81L1174.43,211.07z"/>
		<path class="st0" d="M1452.22,362.59c-21.83,35.75-42.51,55.28-62.04,58.61v139.98H1359v-174.9
			c-18.5,24.53-38.97,36.79-61.42,36.79c-16.84,0-30.19-6.29-40.06-18.87c-9.88-12.57-14.81-28.84-14.81-48.79v-5.61
			c-4.58,5.19-10.5,13.09-17.78,23.69l-10.29-7.17c19.96-29.72,37.73-53.1,53.31-70.14c15.59-17.04,33.99-25.57,55.18-25.57
			c13.51,0,25.67,4.05,36.48,12.15l30.55-15.9v136.55c13.5-1.67,30.97-17.87,52.38-48.63L1452.22,362.59z M1359,365.7v-67.03
			c-11.02-9.77-22.97-14.65-35.85-14.65c-14.76,0-26.86,5.82-36.32,17.45c-9.46,11.64-14.19,26.09-14.19,43.34
			c0,15.59,3.69,27.85,11.07,36.79c7.38,8.94,16.89,13.41,28.53,13.41C1331.98,395.02,1347.57,385.24,1359,365.7z"/>
		<path class="st0" d="M1667.65,368.2c-25.07,37-49,55.5-71.78,55.5c-7.67,0-13.52-2.54-17.56-7.64c-4.04-5.09-6.06-16.16-6.06-33.2
			v-26.19c-22.45,33.05-38.25,52.95-47.39,59.7c-9.15,6.75-17.77,10.14-25.88,10.14c-8.52,0-15.12-2.91-19.8-8.73
			c-4.68-5.82-7.01-19.33-7.01-40.53v-51.12c-8.94,19.95-18.08,35.74-27.44,47.39l-10.28-7.17c18.49-26.6,31.07-53.42,37.72-80.44
			l31.18-15.9v112.86c0,8.1,0.46,13.56,1.4,16.37c0.93,2.8,3.48,4.21,7.64,4.21c4.57,0,10.55-3.53,17.92-10.6
			c7.38-7.06,16.22-18.39,26.5-33.98c10.29-15.59,15.44-24.11,15.44-25.56V285.9l31.49-15.9v97.58c0,12.89,0.46,21.67,1.39,26.34
			c0.94,4.68,3.57,7.01,7.91,7.01c10.12,0,25.21-13.61,45.27-40.84L1667.65,368.2z"/>
		<path class="st0" d="M1834.13,368.2c-12.26,19.95-25.67,34.45-40.22,43.49c-14.55,9.04-33.67,13.56-57.36,13.56
			c-17.25,0-30.92-5.15-41-15.43c-10.08-10.29-15.12-24.79-15.12-43.49c0-4.99,0.41-10.29,1.25-15.9
			c-7.49,9.56-13.21,17.25-17.15,23.07l-10.29-7.17c27.02-38.24,47.8-63.34,62.36-75.3c14.55-11.94,29.51-17.92,44.9-17.92
			c8.52,0,15.53,2.49,21.04,7.48c5.51,4.99,8.26,11.44,8.26,19.33c0,27.02-23.8,53.62-71.4,79.81
			c6.44,14.97,19.85,22.45,40.22,22.45c9.77,0,20.63-3.54,32.58-10.61c11.95-7.06,22.81-17.36,32.58-30.87L1834.13,368.2z
			 M1713.48,367.57c34.5-16.83,51.75-35.54,51.75-56.12c0-6.23-1.71-11.32-5.14-15.27c-3.43-3.95-8.06-5.93-13.87-5.93
			c-10.6,0-19.54,4.89-26.81,14.66c-7.28,9.77-10.91,21.51-10.91,35.23c0,7.48,0.83,13.82,2.5,19.02
			C1712.64,364.15,1713.48,366.95,1713.48,367.57z M1831.33,171.78l-82.31,68.28h-14.03l28.68-68.28H1831.33z"/>
		<path class="st0" d="M2000,368.2c-12.27,19.95-25.67,34.45-40.22,43.49c-14.55,9.04-33.67,13.56-57.36,13.56
			c-17.25,0-30.92-5.15-41-15.43c-10.08-10.29-15.12-24.79-15.12-43.49c0-4.99,0.41-10.29,1.25-15.9
			c-7.48,9.56-13.2,17.25-17.15,23.07l-10.29-7.17c27.02-38.24,47.8-63.34,62.36-75.3c14.55-11.94,29.52-17.92,44.89-17.92
			c8.52,0,15.53,2.49,21.04,7.48c5.51,4.99,8.26,11.44,8.26,19.33c0,27.02-23.8,53.62-71.39,79.81
			c6.44,14.97,19.85,22.45,40.21,22.45c9.77,0,20.63-3.54,32.58-10.61c11.95-7.06,22.81-17.36,32.58-30.87L2000,368.2z
			 M1879.34,367.57c34.5-16.83,51.76-35.54,51.76-56.12c0-6.23-1.72-11.32-5.15-15.27c-3.43-3.95-8.06-5.93-13.87-5.93
			c-10.6,0-19.55,4.89-26.81,14.66c-7.28,9.77-10.91,21.51-10.91,35.23c0,7.48,0.83,13.82,2.49,19.02
			C1878.51,364.15,1879.34,366.95,1879.34,367.57z"/>
	</g>
	<g>
		<path class="st0" d="M920.55,650.14c33.73,9.62,50.6,32.02,50.6,67.2c0,21.74-5.78,40.55-17.36,56.43
			c-11.57,15.87-25.17,23.81-40.82,23.81c-17.09,0-29.32-7.45-36.69-22.34c2.51-2.37,8.96-6.12,19.37-11.26
			c1.05,1.06,1.71,2,1.97,2.78c3.02,13.29,10.44,19.94,22.26,19.94c9.45,0,17.39-4.78,23.83-14.35c6.43-9.56,9.65-22.21,9.65-37.91
			c0-20.46-5.62-36.92-16.84-49.39c-11.23-12.47-26.04-18.71-44.43-18.71l-0.79-3.56c11.15-4.34,20.09-11.8,26.84-22.34
			c6.75-10.54,10.13-21.6,10.13-33.19c0-17-6.55-31.49-19.67-43.48c-13.11-12-29.08-17.99-47.92-17.99
			c-28.2,0-53.59,10.27-76.19,30.83c-22.59,20.56-33.89,43.75-33.89,69.57c0,12.39,2.83,22.36,8.5,29.94
			c5.66,7.57,12.98,11.36,21.94,11.36c10.53,0,20.35-7.45,29.44-22.33l4.15,2.36c-4.09,11.73-10.08,20.76-17.98,27.09
			c-7.91,6.32-16.67,9.49-26.29,9.49c-10.41,0-18.81-3.95-25.2-11.86c-6.39-7.91-9.59-18.12-9.59-30.64
			c0-20.42,6.53-40.98,19.57-61.66c13.04-20.69,30.4-37.33,52.08-49.91c21.67-12.58,44.37-18.87,68.08-18.87
			c21.47,0,38.64,5.7,51.48,17.09c12.85,11.4,19.28,26.45,19.28,45.17C946.05,614.5,937.56,633.4,920.55,650.14z M889.53,571.68
			c-9.23,14.09-13.84,29.58-13.84,46.44c0,8.96,1.41,22.73,4.24,41.31c2.97,18.58,4.45,32.61,4.45,42.1
			c0,27.41-8.05,50.39-24.14,68.98c-16.1,18.57-35.89,27.87-59.38,27.87c-15.31,0-28.03-4.48-38.2-13.45
			c-10.15-8.96-16.23-21.6-18.21-37.94c7.25-3.42,15.88-6.39,25.89-8.9l0.79,2.77c-2.89,5.13-4.34,10.54-4.34,16.2
			c0,8.7,3.48,16.34,10.47,22.93c6.98,6.59,15.74,9.88,26.28,9.88c16.08,0,29.62-6.92,40.62-20.74c11-13.84,16.5-32.28,16.5-55.34
			c0-7.25-0.66-17.99-1.98-32.22c-1.32-14.23-1.97-24.83-1.97-31.82c0-34.12,9.88-61.2,29.65-81.23L889.53,571.68z"/>
		<path class="st0" d="M1096.06,760.62c-14.88,23.45-29.84,35.18-44.86,35.18c-15.42,0-23.13-8.76-23.13-26.28
			c0-14.23,6.79-29.71,20.36-46.44c-2.37,0.52-6.58,0.78-12.65,0.78c-3.95,0-8.1-0.78-12.46-2.37
			c-6.71,14.63-15.61,28.92-26.68,42.89l-6.12-4.94c12.38-17.92,23.18-38.28,32.41-61.08c12.65,5.93,22.59,8.9,29.84,8.9
			c6.85,0,12.78-2.7,17.79-8.1l3.36,2.38c-8.09,10.01-14.6,20.13-19.51,30.33c-4.91,10.22-7.37,21.44-7.37,33.7
			c0,3.82,1.26,7.41,3.78,10.77c2.52,3.36,5.29,5.04,8.34,5.04c5.03,0,9.86-2.03,14.49-6.13c4.63-4.08,10.12-10.54,16.49-19.37
			L1096.06,760.62z"/>
		<path class="st0" d="M1172.36,760.62c-7.52,11.33-15.23,20.02-23.13,26.08c-7.9,6.06-15.02,9.09-21.34,9.09
			c-7.12,0-11.6-1.91-13.44-5.73c-1.85-3.81-2.77-10.54-2.77-20.15v-35.98c-4.09,10.41-10.02,20.55-17.79,30.44l-6.13-4.94
			c12.25-17,20.22-33.47,23.91-49.41l19.76-10.47v62.65c0,7.77,0.37,12.92,1.09,15.41c0.73,2.51,2.54,3.76,5.43,3.76
			c5.94,0,15.48-8.63,28.66-25.89L1172.36,760.62z M1138.36,661.01l-13.84,17.59l-14.03-17.59l14.03-17L1138.36,661.01z"/>
		<path class="st0" d="M1318.4,757.06c-14.76,23.58-28.13,36.11-40.11,37.55v62.45c0,16.73-5.28,30.27-15.82,40.62
			c-10.54,10.35-23.46,15.51-38.74,15.51c-10.28,0-19.7-2.33-28.26-7.01c-8.57-4.68-13.84-10.38-15.81-17.1l16.6-15.81l2.77,2.76
			c-0.53,1.71-0.79,3.49-0.79,5.34c0,6.72,2.67,12.65,8.01,17.79c5.33,5.14,11.83,7.71,19.46,7.71c10.28,0,18.31-3.98,24.12-11.96
			c5.79-7.98,8.7-19.14,8.7-33.5v-88.94c-12.78,16.2-26.55,24.31-41.31,24.31c-10.94,0-19.86-3.95-26.78-11.86
			c-6.92-7.9-10.38-16.8-10.38-26.68v-8.1l-9.68,13.84l-6.52-4.54c15.81-22.48,28.73-37.78,38.74-45.91
			c10.01-8.13,20.02-12.19,30.04-12.19c10.94,0,19.57,3.09,25.9,9.29l19.77-12.06v84.39c9.21-0.79,20.62-11.06,34.19-30.82
			L1318.4,757.06z M1258.52,759.03v-37.35c-6.07-9.36-14.17-14.03-24.31-14.03c-9.49,0-17.46,3.84-23.91,11.53
			c-6.46,7.68-9.68,17.03-9.68,28.02c0,10.34,2.37,18.41,7.11,24.25c4.75,5.83,11.27,8.74,19.57,8.74c8.96,0,16.41-2.99,22.34-8.99
			C1255.56,765.19,1258.52,761.14,1258.52,759.03z"/>
		<path class="st0" d="M1455.17,760.62c-15.02,23.45-29.72,35.18-44.07,35.18c-5.4,0-9.29-1.45-11.66-4.34
			c-2.38-2.9-3.63-8.96-3.76-18.18c-7.9,9.75-14.59,16.1-20.05,19.07c-5.47,2.96-11.7,4.45-18.69,4.45
			c-10.14,0-18.22-3.5-24.21-10.47c-6-6.98-8.99-16.34-8.99-28.07v-8.5c-1.45,1.84-4.81,6.59-10.08,14.23l-6.53-4.54
			c11.6-17.92,23.82-31.99,36.67-42.2c12.85-10.21,24.07-15.31,33.7-15.31c6.85,0,13.63,2.04,20.36,6.12l17.39-8.9v67.2
			c0,7.11,0.33,11.4,0.99,12.85c0.66,1.45,2.44,2.17,5.34,2.17c2.49,0,6.26-2.24,11.26-6.72c5.01-4.48,10.47-10.87,16.4-19.17
			L1455.17,760.62z M1395.29,758.25v-39.72c-5.3-5.4-11.65-8.11-19.05-8.11c-7.94,0-15.08,3.69-21.43,11.07
			c-6.35,7.38-9.52,16.54-9.52,27.47c0,9.49,2.25,16.84,6.75,22.04c4.5,5.21,10.64,7.8,18.45,7.8c6.09,0,11.74-2.99,16.97-8.99
			C1392.67,763.82,1395.29,759.96,1395.29,758.25z"/>
		<path class="st0" d="M1473.94,633.93c0-8.04,2.37-14.36,7.12-18.97c4.74-4.62,10.87-6.92,18.38-6.92c16.21,0,30.6,8.24,43.19,24.7
			c12.58,16.47,18.88,37.55,18.88,63.24c0,28.21-6.79,51.88-20.36,71.05c-13.57,19.17-29.05,28.76-46.44,28.76
			c-9.75,0-17.66-3-23.72-8.99c-6.06-6-9.09-13.21-9.09-21.64v-6.92c0-3.69,0.13-6.12,0.39-7.31l-9.29,13.05l-6.53-4.54
			c25.96-40.19,50.4-60.29,73.33-60.29c12.25,0,21.68,5.14,28.26,15.42c0.79-5.8,1.18-11.33,1.18-16.61
			c0-17.65-5.46-33.73-16.4-48.22c-10.94-14.49-23.65-21.74-38.15-21.74C1487.31,628,1480.4,629.97,1473.94,633.93z M1505.18,781.37
			c10.01,0,19.07-5.04,27.17-15.12c8.1-10.08,12.15-21.11,12.15-33.1c0-7.91-2.27-14.13-6.82-18.68
			c-4.55-4.55-10.64-6.82-18.28-6.82c-10.15,0-19.11,4.68-26.88,14.03c-7.78,9.36-11.67,19.63-11.67,30.83
			c0,8.57,2.24,15.51,6.72,20.85C1492.06,778.7,1497.93,781.37,1505.18,781.37z M1577.51,760.62
			c-14.49,22.93-33.73,35.77-57.71,38.53l-1.78-4.54c21.48-4.87,39.2-17.79,53.16-38.74L1577.51,760.62z"/>
		<path class="st0" d="M1682.65,760.62c-7.77,12.65-16.27,21.84-25.5,27.57c-9.22,5.73-21.35,8.6-36.36,8.6
			c-10.94,0-19.6-3.26-25.99-9.79c-6.4-6.52-9.58-15.71-9.58-27.56c0-3.17,0.26-6.53,0.79-10.08c-4.75,6.06-8.37,10.94-10.87,14.63
			l-6.52-4.54c17.13-24.25,30.3-40.16,39.53-47.73c9.23-7.58,18.71-11.37,28.46-11.37c5.4,0,9.85,1.59,13.34,4.74
			c3.49,3.17,5.24,7.25,5.24,12.26c0,17.13-15.08,33.99-45.26,50.6c4.09,9.48,12.58,14.23,25.5,14.23c6.19,0,13.07-2.24,20.66-6.72
			c7.57-4.48,14.45-10.99,20.65-19.57L1682.65,760.62z M1606.17,760.22c21.87-10.67,32.81-22.52,32.81-35.58
			c0-3.95-1.09-7.18-3.26-9.68c-2.17-2.51-5.1-3.75-8.79-3.75c-6.72,0-12.39,3.09-17,9.29c-4.61,6.19-6.92,13.63-6.92,22.33
			c0,4.74,0.53,8.76,1.58,12.05C1605.64,758.05,1606.17,759.82,1606.17,760.22z"/>
		<path class="st0" d="M1779.3,760.62c-14.89,23.45-29.84,35.18-44.86,35.18c-15.42,0-23.13-8.76-23.13-26.28
			c0-14.23,6.78-29.71,20.36-46.44c-2.37,0.52-6.59,0.78-12.65,0.78c-3.95,0-8.1-0.78-12.44-2.37
			c-6.72,14.63-15.61,28.92-26.68,42.89l-6.12-4.94c12.38-17.92,23.18-38.28,32.41-61.08c12.65,5.93,22.6,8.9,29.85,8.9
			c6.85,0,12.78-2.7,17.78-8.1l3.36,2.38c-8.09,10.01-14.6,20.13-19.51,30.33c-4.91,10.22-7.37,21.44-7.37,33.7
			c0,3.82,1.26,7.41,3.78,10.77c2.51,3.36,5.29,5.04,8.34,5.04c5.02,0,9.85-2.03,14.48-6.13c4.63-4.08,10.13-10.54,16.48-19.37
			L1779.3,760.62z"/>
		<path class="st0" d="M1855.59,760.62c-7.51,11.33-15.22,20.02-23.12,26.08c-7.91,6.06-15.02,9.09-21.34,9.09
			c-7.11,0-11.6-1.91-13.44-5.73c-1.85-3.81-2.77-10.54-2.77-20.15v-35.98c-4.08,10.41-10.01,20.55-17.79,30.44l-6.12-4.94
			c12.25-17,20.22-33.47,23.91-49.41l19.77-10.47v62.65c0,7.77,0.37,12.92,1.09,15.41c0.72,2.51,2.53,3.76,5.43,3.76
			c5.93,0,15.48-8.63,28.66-25.89L1855.59,760.62z M1821.59,661.01l-13.84,17.59l-14.03-17.59l14.03-17L1821.59,661.01z"/>
		<path class="st0" d="M1995.12,760.62c-15.02,23.45-29.72,35.18-44.07,35.18c-5.41,0-9.29-1.45-11.66-4.34
			c-2.37-2.9-3.62-8.96-3.76-18.18c-7.9,9.75-14.59,16.1-20.05,19.07c-5.47,2.96-11.7,4.45-18.68,4.45
			c-10.15,0-18.22-3.5-24.21-10.47c-6-6.98-9-16.34-9-28.07v-8.5c-1.45,1.84-4.81,6.59-10.08,14.23l-6.52-4.54
			c11.59-17.92,23.81-31.99,36.66-42.2c12.85-10.21,24.07-15.31,33.69-15.31c6.85,0,13.64,2.04,20.36,6.12l17.39-8.9v67.2
			c0,7.11,0.33,11.4,0.99,12.85c0.65,1.45,2.44,2.17,5.33,2.17c2.5,0,6.26-2.24,11.26-6.72c5.01-4.48,10.48-10.87,16.41-19.17
			L1995.12,760.62z M1935.24,758.25v-39.72c-5.29-5.4-11.65-8.11-19.05-8.11c-7.94,0-15.08,3.69-21.43,11.07
			c-6.35,7.38-9.52,16.54-9.52,27.47c0,9.49,2.25,16.84,6.75,22.04c4.49,5.21,10.65,7.8,18.45,7.8c6.09,0,11.75-2.99,16.97-8.99
			C1932.62,763.82,1935.24,759.96,1935.24,758.25z"/>
	</g>
	<path class="st0" d="M80.15,621.14c0,0,0.35,0.22,1.02,0.64c0.69,0.39,1.66,1.05,2.88,2.08c2.38,2.03,5.66,5.36,9.04,10.16
		c3.39,4.79,6.98,10.92,10.59,18.15c3.61,7.24,7.23,15.56,10.86,24.71c3.61,9.14,7.23,19.12,10.97,29.55
		c1.91,5.19,3.75,10.53,5.82,15.76c1.02,2.63,2.1,5.2,3.16,7.7l0.82,1.82l1.08,2.83l0.8,2.12l0.81,2.36
		c2.2,6.32,3.84,12.52,5.34,18.86c1.51,6.3,2.79,12.57,4.05,18.65c2.59,12.1,5.5,23.58,11.1,30.27c1.39,1.68,2.88,3.19,4.6,4.51
		c1.79,1.25,3.65,2.47,5.88,3.39c1.03,0.54,2.28,0.87,3.4,1.34c1.22,0.36,2.42,0.78,3.68,1.12c1.3,0.28,2.55,0.66,3.9,0.89
		l2.02,0.36l1.01,0.18l0.25,0.05c-0.81-0.09-0.14-0.01-0.28-0.03l0.15,0.02l0.6,0.07c6.33,0.68,12.62,1.42,18.81,2.22
		c6.03,0.52,11.88,0.84,17.7,1.38c5.79,0.55,11.77,0.53,17.48,0.94c2.87,0.14,5.71,0.36,8.53,0.42c2.82,0.08,5.62,0.16,8.37,0.24
		c11.01,0.45,21.5,0.61,31.19,0.95c9.71,0.28,18.63,0.58,26.56,0.95c7.93,0.38,14.84,0.74,20.55,1.19
		c5.71,0.42,10.19,0.91,13.24,1.17c3.05,0.33,4.68,0.5,4.68,0.5s-1.6,0.33-4.61,0.96c-3.01,0.56-7.42,1.5-13.03,2.48
		c-11.22,2.06-27.24,4.84-46.6,7.49c-9.71,1.23-20.22,2.59-31.47,3.48c-5.61,0.53-11.38,0.96-17.33,1.2
		c-2.97,0.16-5.98,0.29-9.01,0.39c-3.04,0.12-6.08,0.27-9.27,0.21c-6.3,0-12.79-0.07-19.23-0.25c-6.24-0.38-12.55-0.82-18.9-1.33
		l-0.6-0.05l-0.72-0.07l-0.34-0.05l-1.36-0.19l-2.72-0.39c-1.81-0.26-3.67-0.7-5.51-1.06c-1.85-0.44-3.73-0.95-5.59-1.51
		c-1.88-0.7-3.74-1.24-5.61-2.12c-3.75-1.53-7.43-3.7-10.92-6.17c-3.46-2.57-6.62-5.61-9.34-8.93c-2.67-3.36-4.8-6.96-6.59-10.55
		c-1.78-3.61-3.08-7.19-4.24-10.72c-2.23-7.03-3.47-13.81-4.62-20.22c-1.05-6.24-2.09-12.43-3.11-18.54
		c-1.04-5.89-2.27-11.71-3.58-17.01l-0.5-1.98l-0.63-2.17l-0.31-1.09l-0.15-0.54l-0.04-0.14c0.11,0.3-0.31-0.84,0.25,0.62
		l-0.11-0.29l-0.84-2.34c-1.06-3.07-1.96-6.07-2.75-9c-1.59-5.86-3.02-11.48-4.24-16.96c-2.5-10.94-4.63-21.2-6.7-30.63
		c-2.04-9.43-4.01-18.01-5.97-25.54c-1.96-7.53-3.96-13.99-5.92-19.2c-2-5.17-3.95-9.11-5.63-11.59c-0.42-0.61-0.8-1.16-1.12-1.63
		c-0.35-0.47-0.68-0.83-0.93-1.14C80.42,621.46,80.15,621.14,80.15,621.14z"/>
	<path class="st0" d="M357.58,824.14c0,0-0.14-3.45,0.13-9.32c0.17-2.95,0.25-6.49,0.41-10.47c0.21-3.97,0.44-8.44,0.7-13.33
		c0.35-4.85,0.64-10.16,1.1-15.7c0.47-5.55,0.93-11.44,1.62-17.48c1.21-12.14,3.09-25.1,5.53-38.05c1.33-6.49,2.66-12.95,4.36-19.31
		c1.57-6.35,3.52-12.57,5.53-18.53c1.01-2.98,2.1-5.9,3.23-8.73c1.15-2.83,2.14-5.61,3.44-8.25c1.25-2.64,2.42-5.21,3.63-7.67
		c1.17-2.46,2.57-4.76,3.81-6.99c1.3-2.2,2.5-4.31,3.72-6.28c1.33-1.93,2.57-3.76,3.8-5.44c1.23-1.67,2.34-3.25,3.44-4.66
		c1.07-1.42,2.23-2.65,3.22-3.76c3.99-4.45,6.48-6.75,6.48-6.75s-0.57,3.46-1.93,9.09c-0.3,1.43-0.79,2.92-1.1,4.64
		c-0.31,1.73-0.73,3.54-1.13,5.49c-0.4,1.95-0.92,3.97-1.39,6.12c-0.38,2.19-0.86,4.45-1.31,6.82c-1.06,4.66-1.9,9.82-2.95,15.17
		c-0.55,2.66-1.03,5.44-1.51,8.28c-0.43,2.85-1.14,5.66-1.59,8.63c-0.95,5.91-2.13,11.93-3.2,18.15
		c-1.18,6.16-2.26,12.53-3.54,18.82c-1.2,6.36-2.54,12.66-3.91,18.94c-1.38,6.24-2.86,12.43-4.47,18.37
		c-1.59,5.97-3.26,11.71-5.04,17.15c-1.8,5.43-3.58,10.52-5.49,15.19c-0.96,2.32-1.84,4.56-2.76,6.65
		c-0.98,2.11-1.88,4.12-2.81,5.97c-1.81,3.72-3.43,6.9-4.99,9.39C359.58,821.33,357.58,824.14,357.58,824.14z"/>
	<path class="st0" d="M100.14,615.02c0,0,0.15-1.59,0.42-4.57c0.12-1.49,0.41-3.31,0.77-5.48c0.18-1.08,0.34-2.28,0.59-3.51
		c0.28-1.23,0.58-2.53,0.89-3.92c1.34-5.51,3.33-12.19,6.61-19.51c3.24-7.33,7.68-15.33,13.52-23.42
		c5.88-8.06,13.18-16.15,21.77-23.78c8.63-7.57,18.53-14.69,29.48-20.79c10.92-6.15,22.87-11.35,35.42-15.34
		c6.29-1.95,12.7-3.73,19.24-5.07c3.28-0.62,6.56-1.28,9.88-1.77c1.66-0.26,3.31-0.53,4.98-0.72l2.5-0.32l1.25-0.16l0.63-0.08
		l1.04-0.08l0.29-0.02l4.73-0.2c1.71-0.03,3.66,0.01,5.48,0.03c1.9-0.01,3.54,0.16,5.3,0.25c1.74,0.09,3.46,0.22,5.16,0.43
		c6.86,0.62,13.53,1.96,20.03,3.54c3.26,0.76,6.44,1.7,9.61,2.63c3.13,1.05,6.25,2.06,9.27,3.25c6.1,2.24,11.93,4.91,17.55,7.74
		c11.18,5.77,21.4,12.44,30.26,19.82c8.85,7.38,16.4,15.34,22.41,23.41c6.02,8.07,10.43,16.26,13.41,23.82
		c2.97,7.58,4.45,14.51,5.18,20.18c0.31,2.86,0.59,5.37,0.52,7.6c0.02,2.21,0.06,4.06-0.1,5.57c-0.22,3.01-0.39,4.59-0.39,4.59
		s-0.37-1.55-1.07-4.45c-0.27-1.45-0.85-3.19-1.48-5.22c-0.57-2.04-1.49-4.31-2.44-6.82c-2.07-4.98-4.89-10.83-8.97-16.94
		c-4.08-6.1-9.31-12.48-15.79-18.63c-6.45-6.18-14.07-12.16-22.65-17.68c-8.56-5.54-18.19-10.46-28.39-14.77
		c-5.17-2-10.4-4.1-15.84-5.72c-5.43-1.65-10.96-3.15-16.57-4.29c-5.6-1.18-11.3-2-16.95-2.5c-1.42-0.16-2.83-0.25-4.24-0.3
		c-1.39-0.05-2.88-0.19-4.14-0.14c-1.33,0.01-2.54-0.03-3.98,0l-4.72,0.24l-3.69,0.42c-1.47,0.15-2.93,0.37-4.38,0.58
		c-2.92,0.38-5.82,0.94-8.72,1.45c-5.77,1.18-11.52,2.4-17.14,3.97c-5.6,1.62-11.13,3.33-16.52,5.28
		c-5.35,2.02-10.62,4.12-15.67,6.46c-10.12,4.65-19.51,10-27.96,15.78c-8.43,5.81-15.95,12-22.4,18.31
		c-6.43,6.32-11.8,12.71-16.19,18.72c-4.43,6-7.73,11.69-10.35,16.47c-1.29,2.41-2.43,4.58-3.32,6.5c-0.94,1.92-1.74,3.57-2.28,4.97
		C100.77,613.56,100.14,615.02,100.14,615.02z"/>
	<path class="st0" d="M107.22,627.91c0,0,0.75-1.23,2.21-3.16c0.68-0.99,1.76-2.01,3.03-3.23c1.28-1.26,2.81-2.4,4.52-3.63
		c1.71-1.28,3.7-2.3,5.82-3.46c2.16-1.01,4.48-2.07,6.96-2.85c2.47-0.83,5.07-1.54,7.75-2.03c2.67-0.58,5.44-0.78,8.19-1.03
		c2.77-0.08,5.54-0.17,8.26,0.1c2.72,0.15,5.38,0.63,7.93,1.13c2.55,0.56,4.97,1.25,7.22,2.07c2.25,0.89,4.33,1.71,6.18,2.77
		c0.92,0.52,1.8,1,2.61,1.49c0.81,0.52,1.55,1.06,2.24,1.57c1.38,1.03,2.54,1.92,3.4,2.86c1.75,1.77,2.61,2.89,2.61,2.89
		s-1.49,0.07-3.84,0.01c-1.15-0.07-2.59-0.02-4.16-0.03c-1.56-0.06-3.31-0.03-5.19,0c-1.85-0.06-3.88,0.07-5.95,0.06
		c-2.07,0.05-4.25,0.09-6.51,0.15c-1.13,0.08-2.26,0.08-3.41,0.11c-1.14,0-2.31,0.14-3.47,0.16c-2.33,0.03-4.69,0.25-7.06,0.31
		c-2.35,0.21-4.73,0.22-7.04,0.46c-1.16,0.11-2.33,0.13-3.47,0.21c-1.14,0.12-2.26,0.23-3.39,0.28c-2.25,0.19-4.43,0.39-6.49,0.56
		c-2.04,0.28-4.09,0.33-5.91,0.62c-1.85,0.22-3.62,0.36-5.09,0.59c-1.52,0.2-2.94,0.28-4.14,0.53
		C108.66,627.82,107.22,627.91,107.22,627.91z"/>
	<path class="st0" d="M210.97,627.91c0,0,0.96-1.23,2.87-3.12c1.92-1.88,4.79-4.35,8.56-6.85c3.75-2.5,8.38-5.04,13.65-7.09
		c1.31-0.55,2.67-1,4.06-1.46c1.38-0.47,2.81-0.89,4.26-1.26c2.9-0.78,5.92-1.33,8.97-1.76c3.08-0.32,6.18-0.61,9.29-0.48
		c3.1,0.05,6.17,0.37,9.13,0.98c2.96,0.56,5.78,1.45,8.37,2.53c2.59,1.07,4.91,2.42,6.91,3.83c0.99,0.7,1.89,1.48,2.73,2.19
		c0.81,0.77,1.55,1.51,2.21,2.23c1.27,1.51,2.26,2.86,2.93,4.09c0.74,1.15,1.08,2.23,1.38,2.88c0.28,0.67,0.39,1.04,0.39,1.04
		s-0.36-0.15-1.04-0.42c-0.66-0.28-1.6-0.7-2.81-1.13c-1.17-0.47-2.62-0.93-4.2-1.41c-1.62-0.43-3.38-0.86-5.31-1.17
		c-0.98-0.13-1.93-0.35-2.98-0.41c-1.02-0.13-2.07-0.23-3.16-0.28c-2.17-0.15-4.44-0.19-6.82-0.13c-1.19,0.04-2.39,0.09-3.62,0.13
		c-1.23,0.08-2.48,0.17-3.73,0.26c-2.51,0.21-5.11,0.48-7.7,0.82c-2.61,0.29-5.22,0.72-7.83,1.08c-2.63,0.41-5.21,0.82-7.71,1.21
		c-2.55,0.4-5.02,0.79-7.36,1.16c-2.39,0.36-4.66,0.69-6.75,1c-4.23,0.59-7.88,1.03-10.49,1.26c-1.29,0.13-2.37,0.17-3.09,0.24
		C211.37,627.91,210.97,627.91,210.97,627.91z"/>
	<path class="st0" d="M319.23,632.42c0,0,0.1-0.36,0.32-0.99c0.24-0.63,0.51-1.56,1.17-2.7c0.61-1.19,1.46-2.46,2.57-3.88
		c1.11-1.4,2.5-2.89,4.16-4.32c1.65-1.46,3.57-2.85,5.7-4.15c2.13-1.3,4.47-2.5,6.98-3.5c1.24-0.53,2.54-0.99,3.86-1.4
		c1.31-0.46,2.67-0.81,4.04-1.16c2.75-0.64,5.58-1.14,8.44-1.38c2.86-0.26,5.75-0.3,8.59-0.12c1.42,0.08,2.83,0.22,4.22,0.45
		c1.38,0.17,2.76,0.45,4.09,0.75c2.68,0.65,5.23,1.44,7.58,2.49c2.35,1,4.48,2.24,6.33,3.54c1.84,1.35,3.4,2.73,4.61,4.15
		c0.6,0.7,1.15,1.34,1.57,2.04c0.44,0.67,0.84,1.25,1.11,1.87c0.62,1.14,0.91,2.14,1.1,2.8c0.19,0.66,0.26,1.01,0.26,1.01
		s-0.33-0.15-0.95-0.43c-0.29-0.14-0.65-0.31-1.07-0.51c-0.43-0.16-0.92-0.35-1.48-0.56c-0.52-0.21-1.14-0.39-1.78-0.59
		c-0.63-0.2-1.32-0.39-2.06-0.55c-1.44-0.37-3.11-0.63-4.86-0.86c-1.78-0.22-3.67-0.39-5.7-0.47c-2-0.14-4.15-0.09-6.34-0.12
		c-4.41,0.07-9.11,0.3-13.83,0.73c-4.72,0.4-9.45,0.97-13.89,1.64c-2.22,0.34-4.38,0.69-6.42,1.09c-2.05,0.39-4,0.77-5.8,1.21
		c-1.81,0.41-3.48,0.86-4.98,1.29c-1.49,0.43-2.85,0.87-3.91,1.25c-1.09,0.36-2.05,0.74-2.64,1.01
		C319.59,632.31,319.23,632.42,319.23,632.42z"/>
	<path class="st0" d="M199.7,654.98c0,0,0.61,2.39,1.41,6.57c0.36,2.1,0.89,4.61,1.46,7.44c0.26,1.41,0.54,2.92,0.84,4.5
		c0.32,1.59,0.66,3.26,1.01,5c1.33,6.93,2.88,15.01,4.55,23.67c0.45,2.16,0.84,4.37,1.23,6.6c0.41,2.23,0.86,4.49,1.24,6.78
		c0.81,4.56,1.59,9.23,2.35,13.9c0.7,4.69,1.43,9.38,2,14.04c0.32,2.32,0.59,4.64,0.81,6.94c0.24,2.3,0.5,4.56,0.67,6.8
		c0.35,4.5,0.66,8.83,0.77,12.98c0.05,2.08,0.09,4.09,0.13,6.04c-0.03,1.96-0.05,3.85-0.08,5.67c-0.07,3.63-0.29,6.97-0.55,9.92
		c-0.24,2.95-0.53,5.52-0.88,7.64c-0.66,4.23-1.19,6.63-1.19,6.63s-0.81-2.35-1.96-6.43c-0.56-2.03-1.23-4.5-2.01-7.32
		c-0.73-2.81-1.55-5.99-2.45-9.45c-0.84-3.45-1.76-7.19-2.73-11.15c-0.89-3.95-1.92-8.13-2.82-12.47
		c-0.96-4.34-1.89-8.82-2.75-13.42c-0.91-4.58-1.67-9.28-2.46-13.98c-0.68-4.73-1.42-9.45-1.9-14.16c-0.57-4.69-0.93-9.35-1.2-13.87
		c-0.25-4.53-0.38-8.91-0.33-13.09c0.06-4.18,0.17-8.12,0.51-11.77c0.17-1.82,0.32-3.56,0.47-5.22c0.24-1.67,0.44-3.25,0.68-4.73
		c0.45-2.96,0.9-5.5,1.43-7.56C198.97,657.33,199.7,654.98,199.7,654.98z"/>
	<path class="st0" d="M303.45,648.21c0,0,0.57,2.47,1.3,6.78c0.37,2.15,0.75,4.77,1.15,7.77c0.21,1.5,0.37,3.09,0.58,4.78
		c0.12,1.7,0.13,3.5,0.19,5.37c0.09,3.76,0.12,7.86,0.06,12.22c0.04,2.2-0.19,4.37-0.34,6.61c-0.15,2.24-0.39,4.51-0.6,6.84
		c-0.42,4.65-0.93,9.45-1.78,14.23c-0.75,4.8-1.64,9.67-2.55,14.5c-1.03,4.79-2.04,9.59-3.19,14.28c-1.1,4.71-2.26,9.25-3.45,13.68
		c-1.17,4.42-2.47,8.67-3.56,12.7c-1.15,4.02-2.3,7.82-3.43,11.33c-1.19,3.5-2.12,6.72-3.04,9.58c-0.92,2.86-1.77,5.35-2.52,7.4
		c-1.5,4.1-2.51,6.45-2.51,6.45s-0.32-2.5-0.61-6.87c-0.14-2.19-0.26-4.84-0.35-7.89c-0.08-3.04-0.14-6.49,0.08-10.2
		c0.18-3.72,0.43-7.74,0.78-11.99c0.32-4.26,0.9-8.67,1.53-13.25c0.29-2.29,0.66-4.6,1.02-6.95c0.35-2.35,0.73-4.71,1.17-7.07
		c0.8-4.74,1.77-9.52,2.72-14.31c0.99-4.76,1.9-9.51,2.98-14.16c0.48-2.34,1.1-4.64,1.57-6.91c0.47-2.27,0.93-4.52,1.45-6.73
		c0.93-4.41,2.16-8.7,2.96-12.7c0.84-4.01,1.71-7.81,2.58-11.34c0.45-1.78,0.88-3.48,1.28-5.09c0.33-1.66,0.62-3.23,0.95-4.71
		c0.62-2.96,1.21-5.54,1.74-7.66C302.69,650.63,303.45,648.21,303.45,648.21z"/>
</g>
</svg>
