<svg version="1.2" xmlns="http://www.w3.org/2000/svg" viewBox="0 0 2000 914" width="2000" height="914">
	<title>retangular-golden-svg</title>
	<style>
		.s0 { fill: #ffffff } 
	</style>
	<path id="Layer" fill-rule="evenodd" class="s0" d="m299.3 5.6q-10.9 18.1-34.9 30.7-24 12.7-46.2 12.7-21.8 0-61.4-12.8-39.3-12.8-50.8-12.8-21.5 0-37 16.5-15.4 16.6-15.4 39.9 0 22.8 14.2 37.3 14.2 14.5 35.2 22.8 21.1 8.2 65.7 20.7 44.5 12.1 71.7 23.8 27.1 11.7 46 34.9 18.8 23.3 18.8 61 0 56.4-46.3 100.4-46.3 43.9-114.6 43.9-62.3 0-103.3-32.7-41-32.7-41-77.9 0-33.4 24-55.7 24-22.3 62-22.3 39.9 0 67.5 22 27.6 22 27.6 52.2 0 20.6-14.2 33.8-14.1 13.3-34.1 13.3-33 0-49.3-30.6l7.8-4.3q11.9 12.1 26.2 12.1 15.3 0 25.4-10.7 10.2-10.8 10.2-27 0-20.3-17-33.8-17-13.6-41-13.6-28.1 0-46.6 20.6-18.6 20.6-18.6 49.3 0 37.7 33.2 64.8 33.2 27.1 83.7 27.1 54 0 89.8-33.8 35.9-33.9 35.9-79.4 0-31.2-16.7-50.6-16.7-19.3-39.9-29-23.2-9.7-64.7-21.4-41.5-11.8-64.7-21.5-23.2-9.6-39-28-15.7-18.4-15.7-48 0-40.6 32.1-69.7 32.1-29.2 74.5-29.2 19.7 0 56.1 10.3 36.8 10 53 10 26.6 0 46.2-20.9zm42.4 360.7q40.5-57.9 66.4-74.8 25.9-16.8 54.2-16.8 27.2 0 42.6 14.3 15.4 14.4 15.4 40 0 36.6-29.3 66.7-29.3 30.2-68.3 30.2-25.2 0-40.3-15.2-15.1-15.1-15.1-38.5 0-12.4 1.8-22.4-4.6 5.3-17.1 24.3zm101.3 39q23.7 0 37.7-17.2 14-17.1 14-45.5 0.1-24.6-13-38.5-13.1-13.9-34.7-13.9-22.7 0-36.3 16.6-13.5 16.5-13.5 46.1 0 52.4 45.8 52.4zm65.5 9.8q-22.2 11.4-44.3 13.9l-2.5-7.2q51.4-11.5 83.6-61.1l0.5 0.4q5-8.2 10.1-17.1 5.9-10.4 17.1-33.8 11.2-23.4 11.2-26.8v-140q0-36.5 24.2-64.5 24.2-28.1 55-28.1 36.5 0 36.5 34 0 29.9-16.8 69.5-16.9 39.6-67.7 120v130.4q14.7-1 26.5-8.8 10.6-6.9 30.1-34.2 26.2-37.8 34.4-73.3l31.2-16.5v98.8q0 18.4 1.7 24.3 1.7 5.9 8.6 5.9 13.7 0 43.6-38.8 30.4-45.8 60.5-110.5l7.5 0.6 2.5 14.7q24.3 12.4 39 36.4 14.6 24.1 14.6 48.4 0 29-17 50.5-16.9 21.5-43.5 21.5-13 0-28.3-8.8-15.3-8.7-26.5-25.5 9.6-15 28-25.6l2.5 3.1q-0.6 3.2-0.6 9.1 0 13.4 9.3 23.8 9.3 10.5 21.1 10.5 14.6 0 23.9-12.3 9.3-12.4 9.3-31.1 0-38.6-45.8-68.9l-26.5 41.8q-15.9 25.6-23.1 34.3l-0.2-0.1q-15.9 22.6-32.5 35.3-18.7 14.4-33.7 14.4-16.8 0-21.2-9.1-4.4-9-4.4-31.8v-56.7q-8.1 20.7-22.4 40.5-34.9 55.8-68.6 55.8v107.9q0 35.9-19.8 57.5-19.8 21.7-49.1 21.7-30.8 0-48.3-26.8l25.6-25.3 5 4.4q-1.9 5.9-1.9 9 0 11.9 7.5 20.3 7.5 8.4 19.3 8.4 30.6 0 30.6-62v-115.1q-15.6-2.5-31.8-14 3.1-13.4 14-26.8 8.7 14 17.8 17.5v-82.7q-12.5 30.3-31.2 55.8l-0.3-0.2q-23.4 32.3-44.3 43.1zm106.9-171.3q58.9-94.5 58.9-151.2 0-28.4-20.5-28.4-15.3 0-26.9 16.1-11.5 16-11.5 42.2zm133.1-32.7l-21.8 27.7-22.1-27.7 22.1-26.9zm220.1 157.2q-33.3 54.8-84.2 59.5l-1.8-5.9q22.4-5.3 38.2-17.6 14.2-11.1 34.1-37.6l-1.1-0.7q11.6-17.1 19.7-29.9 8.1-12.7 19.9-33.4 11.7-20.7 11.7-23.2v-127.6l31.2-30.5v118.3l47.9-75.1 12.3 9.1-60.2 94.8v96q0 21.8 1.9 29.2 1.8 7.3 10.3 7.3 21.2 0 50.5-41.8l0.4 0.4q24.9-36.6 32.9-71.1l31.2-16.5v98.8q0 18.4 1.7 24.3 1.7 5.9 8.6 5.9 13.7 0 43.7-38.9 28.2-41.5 50.4-65.8 23.4-25.6 55.2-25.6 20.3 0 36.5 12.1l30.5-15.9v136.6q18.7-2.3 47.6-41.9 25.1-37.5 34.4-75.6l31.2-15.9v112.9q0 12.1 1.4 16.3 1.4 4.2 7.7 4.2 6.8 0 17.9-10.6 11-10.6 26.5-34 15.4-23.3 15.4-25.5v-47.4l31.5-15.9v97.6q0 19.3 1.4 26.3 1.4 7 7.9 7 15.2 0 45.3-40.8l0.2 0.2q37.4-52.3 58.1-69.3 21.8-17.9 44.9-17.9 12.7 0 21 7.5 8.3 7.5 8.3 19.3 0 40.5-71.4 79.8 9.6 22.5 40.2 22.5 14.6 0 32.6-10.7 15.2-9 28.1-25l-0.2-0.2q40.5-57.3 62.3-75.3 21.9-17.9 44.9-17.9 12.8 0 21.1 7.5 8.2 7.5 8.2 19.3 0 40.5-71.4 79.8 9.7 22.5 40.2 22.5 14.7 0 32.6-10.7 17.9-10.5 32.6-30.8l9.4 7.5q-18.4 29.9-40.3 43.5-21.8 13.5-57.3 13.5-25.9 0-41-15.4-15.1-15.4-15.1-43.5 0-7.5 1.2-15.9-8.1 10.3-13.4 17.8-18.4 29.9-40.2 43.5-21.9 13.5-57.4 13.5-25.9 0-41-15.4-15.1-15.4-15.1-43.5 0-7.5 1.2-15.9-11.2 14.3-17.1 23.1l-0.4-0.3q-35.7 50.5-68.3 50.5-11.5 0-17.5-7.7-6.1-7.6-6.1-33.2v-26.1q-33.7 49.5-47.4 59.6-13.7 10.2-25.9 10.2-12.7 0-19.8-8.7-7-8.8-7-40.6v-51.1q-11.7 26.2-23.9 42.8-30.5 47.6-58.1 52.3v140h-31.1v-174.9q-27.8 36.8-61.5 36.8-25.2 0-40-18.9-14.8-18.9-14.8-48.8v-5.6q-6.9 7.8-17.8 23.7l-0.3-0.3q-16.2 23.2-33.1 36.1-18.7 14.4-33.6 14.4-16.9 0-21.2-9.1-4.4-9-4.4-31.8v-56.7q-9.7 24.6-28.1 48l-0.6-0.5q-33.4 50.1-70.4 50.1-18.7 0-23.4-8.8-4.7-8.9-4.7-28.4v-75q-18.8 31.8-36.9 56.4zm205.8-157.2l-21.8 27.8-22.2-27.8 22.2-26.8zm184.6 154.7v-67.1q-16.6-14.6-35.9-14.6-22.1 0-36.3 17.4-14.2 17.5-14.2 43.4 0 23.4 11.1 36.8 11 13.4 28.5 13.4 29.6 0 46.8-29.3zm354.4 1.8q51.8-25.2 51.8-56.1 0-9.3-5.2-15.3-5.1-5.9-13.8-5.9-15.9 0-26.8 14.7-10.9 14.6-10.9 35.2 0 11.2 2.5 19 2.4 7.5 2.4 8.4zm117.9-195.8l-82.3 68.3h-14.1l28.7-68.3zm48 195.8q51.8-25.2 51.8-56.1 0-9.3-5.2-15.3-5.1-5.9-13.8-5.9-15.9 0-26.8 14.7-10.9 14.6-10.9 35.2 0 11.2 2.4 19 2.5 7.5 2.5 8.4zm-958.8 282.6q50.6 14.4 50.6 67.2 0.1 32.6-17.3 56.4-17.4 23.8-40.8 23.8-25.7 0-36.7-22.3 3.7-3.5 19.3-11.3 1.6 1.6 2 2.8 4.5 20 22.3 20 14.1 0 23.8-14.4 9.7-14.3 9.7-37.9 0-30.7-16.9-49.4-16.8-18.7-44.4-18.7l-0.8-3.6q16.7-6.5 26.8-22.3 10.2-15.8 10.2-33.2 0-25.5-19.7-43.5-19.7-18-47.9-18-42.3 0-76.2 30.9-33.9 30.8-33.9 69.5 0 18.6 8.5 30 8.5 11.3 21.9 11.3 15.8 0 29.5-22.3l4.1 2.4q-6.1 17.6-18 27.1-11.8 9.4-26.2 9.5-15.7 0-25.2-11.9-9.6-11.9-9.6-30.6 0-30.7 19.5-61.7 19.6-31 52.1-49.9 32.5-18.9 68.1-18.9 32.2 0 51.5 17.1 19.3 17.1 19.3 45.2 0 31.6-25.6 56.7zm-31-78.5q-13.8 21.2-13.8 46.5 0 13.4 4.2 41.3 4.5 27.9 4.5 42.1 0 41.1-24.2 69-24.1 27.8-59.3 27.8-23 0-38.2-13.4-15.3-13.4-18.3-37.9 10.9-5.2 25.9-8.9l0.8 2.7q-4.3 7.7-4.3 16.2 0 13.1 10.5 23 10.4 9.8 26.2 9.8 24.2 0 40.7-20.7 16.5-20.8 16.5-55.3 0-10.9-2-32.3-2-21.3-2-31.8 0-51.2 29.7-81.2zm161.6 224.1q-23.1 0-23.1-26.3 0-21.3 20.4-46.4-3.6 0.8-12.7 0.8-5.9 0-12.5-2.4-10 21.9-26.6 42.9l-6.2-5q18.6-26.8 32.5-61 18.9 8.9 29.8 8.9 10.3 0 17.8-8.1l3.3 2.3q-12.1 15.1-19.5 30.4-7.3 15.3-7.3 33.7 0 5.7 3.7 10.7 3.8 5.1 8.4 5.1 7.5 0 14.5-6.1 6.9-6.2 16.5-19.4 16.3-23.6 21.5-45.9l19.8-10.4v62.6q0 11.7 1 15.4 1.1 3.8 5.5 3.8 8.9 0 28.6-25.9h0.1q21.8-30.5 35.9-42 15-12.2 30.1-12.2 16.4 0 25.9 9.3l19.7-12v84.4q12-1.1 28.9-23.5 17.4-26.9 36.6-42.2 19.3-15.4 33.7-15.4 10.3 0 20.4 6.2l17.4-8.9v67.2q0 10.6 1 12.8 1 2.2 5.3 2.2 3.8 0 11.3-6.7 6.7-6 14.4-16.5 38.5-59 72.5-59 18.4 0 28.3 15.4 1.2-8.7 1.2-16.6 0-26.5-16.4-48.3-16.4-21.7-38.2-21.7-11 0-20.7 5.9 0-12 7.1-18.9 7.1-7 18.4-7 24.3 0 43.2 24.7 18.8 24.7 18.8 63.3 0 42.3-20.3 71-20.4 28.8-46.5 28.8-14.6 0-23.7-9-9.1-9-9.1-21.6v-7q0-5.5 0.4-7.3l-9.3 13.1q-21.4 31.8-41.9 31.8-8.1 0-11.6-4.3-3.6-4.4-3.8-18.2-11.8 14.6-20 19.1-8.2 4.4-18.7 4.4-15.3 0-24.2-10.5-9-10.4-9-28v-8.5q-1.6 1.9-6 8.3-21.8 34.4-39.5 36.5v62.5q0 25.1-15.8 40.6-15.8 15.5-38.7 15.5-15.5 0-28.3-7-12.9-7-15.8-17.1l16.6-15.8 2.8 2.7q-0.8 2.6-0.8 5.4 0 10.1 8 17.8 8 7.7 19.4 7.7 15.4 0 24.2-12 8.6-12 8.7-33.5v-88.9q-19.2 24.3-41.4 24.3-16.4 0-26.7-11.9-10.4-11.8-10.4-26.7v-8.1l-9.7 13.9-0.2-0.2q-10.2 14.7-20.9 22.9-11.9 9.1-21.4 9.1-10.7 0-13.4-5.7-2.8-5.8-2.8-20.2v-36q-6.1 15.6-17.8 30.5l-0.2-0.2q-21.1 31.6-42.5 31.6zm87.2-134.8l-13.9 17.6-14-17.6 14-17zm120.2 98v-37.3q-9.1-14.1-24.3-14-14.2 0-23.9 11.5-9.7 11.5-9.7 28 0 15.5 7.1 24.3 7.1 8.7 19.6 8.7 13.4 0 22.3-9 8.9-9 8.9-12.2zm136.8-0.7v-39.8q-8-8.1-19.1-8.1-11.9 0-21.4 11.1-9.5 11.1-9.5 27.5 0 14.2 6.7 22 6.8 7.8 18.5 7.8 9.1 0 16.9-9 7.9-9 7.9-11.5zm109.9 23.1q15 0 27.1-15.1 12.2-15.2 12.2-33.1 0-11.9-6.8-18.7-6.9-6.8-18.3-6.8-15.2 0-26.9 14-11.7 14-11.7 30.8 0 12.9 6.8 20.9 6.7 8 17.6 8zm72.3-20.8q-21.7 34.4-57.7 38.6l-1.8-4.6q30.3-6.9 50.7-35.1h-0.1q25.7-36.4 39.5-47.8 13.9-11.3 28.5-11.3 8.1 0 13.3 4.7 5.3 4.7 5.3 12.3 0 25.6-45.3 50.6 6.1 14.2 25.5 14.2 9.3 0 20.7-6.7 9.6-5.8 17.8-15.9l-0.1-0.2q18.5-26.8 32.4-61 19 8.9 29.8 8.9 10.3 0 17.8-8.1l3.4 2.3q-12.2 15.1-19.5 30.4-7.4 15.3-7.4 33.7 0 5.7 3.8 10.7 3.7 5.1 8.3 5.1 7.5 0 14.5-6.1 6.9-6.2 16.5-19.4l0.1 0.1q16.2-23.7 21.4-46l19.8-10.4v62.6q0 11.7 1.1 15.4 1 3.8 5.4 3.8 8.6 0 27.4-24.3 16.7-25.2 35.1-39.8 19.3-15.4 33.7-15.4 10.3 0 20.4 6.2l17.4-8.9v67.2q0 10.6 1 12.8 1 2.2 5.3 2.2 3.8 0 11.3-6.7 7.5-6.8 16.4-19.2l5.9 5.1q-22.5 35.2-44.1 35.2-8.1 0-11.6-4.3-3.6-4.4-3.8-18.2-11.8 14.6-20 19.1-8.2 4.4-18.7 4.4-15.2 0-24.2-10.5-9-10.4-9-28v-8.5q-2.2 2.7-10.1 14.2l-0.2-0.2q-10.2 14.7-20.9 22.9-11.9 9.1-21.4 9.1-10.7 0-13.4-5.7-2.8-5.8-2.8-20.2v-36q-6.1 15.6-17.8 30.5l-0.2-0.2q-21.1 31.6-42.5 31.6-23.1 0-23.1-26.3 0-21.3 20.4-46.4-3.6 0.8-12.7 0.8-5.9 0-12.4-2.4-9.5 20.6-24.7 40.3-11.4 18.1-24.8 26.4-13.8 8.6-36.3 8.6-16.4 0-26-9.8-9.6-9.8-9.6-27.6 0-4.7 0.8-10-5.1 6.5-8.5 11.2zm28.6-0.4q32.9-16 32.9-35.6 0-5.9-3.3-9.6-3.3-3.8-8.8-3.8-10.1 0-17 9.3-6.9 9.3-6.9 22.3 0 7.1 1.6 12.1 1.5 4.7 1.5 5.3zm215.5-99.2l-13.9 17.6-14-17.6 14-17zm113.7 97.2v-39.7q-8-8.1-19.1-8.1-11.9 0-21.4 11.1-9.5 11.1-9.5 27.5 0 14.2 6.7 22 6.8 7.8 18.5 7.8 9.1 0 16.9-9 7.9-9 7.9-11.6zm-1854.1-136.4c0.7 0.4 1.7 1 2.9 2.1 2.4 2 5.6 5.3 9 10.1 3.4 4.8 7 10.9 10.6 18.2 3.6 7.2 7.2 15.5 10.9 24.7 3.6 9.1 7.2 19.1 10.9 29.5 2 5.2 3.8 10.6 5.9 15.8 1 2.6 2.1 5.2 3.1 7.7l0.8 1.8 1.1 2.8 0.8 2.2 0.8 2.3c2.2 6.3 3.9 12.5 5.4 18.9 1.5 6.3 2.8 12.5 4 18.6 2.6 12.1 5.5 23.6 11.1 30.3 1.4 1.7 2.9 3.2 4.6 4.5 1.8 1.3 3.7 2.5 5.9 3.4 1 0.5 2.3 0.9 3.4 1.3 1.2 0.4 2.4 0.8 3.7 1.2 1.3 0.2 2.5 0.6 3.9 0.8l3 0.6h0.3c-0.8-0.1-0.2 0-0.3 0h0.1l0.6 0.1q9.5 1 18.8 2.2c6.1 0.5 11.9 0.9 17.7 1.4 5.8 0.5 11.8 0.5 17.5 0.9 2.9 0.2 5.7 0.4 8.6 0.5q4.2 0.1 8.3 0.2c11 0.4 21.5 0.6 31.2 0.9 9.7 0.3 18.6 0.6 26.6 1 7.9 0.4 14.8 0.7 20.5 1.2 5.7 0.4 10.2 0.9 13.3 1.2 3 0.3 4.6 0.5 4.6 0.5 0 0-1.6 0.3-4.6 0.9-3 0.6-7.4 1.5-13 2.5-11.2 2.1-27.2 4.8-46.6 7.5-9.7 1.2-20.2 2.6-31.5 3.5-5.6 0.5-11.3 0.9-17.3 1.2q-4.5 0.2-9 0.4c-3 0.1-6.1 0.2-9.3 0.2-6.3 0-12.8-0.1-19.2-0.3q-9.4-0.6-18.9-1.3l-0.6-0.1h-0.7l-0.4-0.1-1.3-0.2-2.7-0.4c-1.9-0.2-3.7-0.7-5.6-1q-2.7-0.7-5.5-1.5c-1.9-0.7-3.8-1.3-5.7-2.2-3.7-1.5-7.4-3.7-10.9-6.1-3.4-2.6-6.6-5.6-9.3-9-2.7-3.3-4.8-6.9-6.6-10.5-1.8-3.6-3.1-7.2-4.2-10.7-2.3-7.1-3.5-13.8-4.7-20.2q-1.5-9.4-3.1-18.6c-1-5.9-2.2-11.7-3.6-17l-0.5-2-0.6-2.1-0.3-1.1-0.1-0.6-0.1-0.1q0 0 0 0c0-0.1-0.2-0.6 0.3 0.6l-0.1-0.3-0.9-2.3q-1.6-4.6-2.7-9c-1.6-5.9-3.1-11.5-4.3-17-2.5-10.9-4.6-21.2-6.7-30.6-2-9.4-4-18-5.9-25.6-2-7.5-4-13.9-6-19.2-2-5.1-3.9-9.1-5.6-11.5q-0.6-1-1.1-1.7c-0.4-0.4-0.7-0.8-0.9-1.1q-0.8-1-0.8-1 0 0 1 0.7zm276.4 202.3c0 0-0.1-3.4 0.1-9.3 0.2-2.9 0.3-6.5 0.5-10.5 0.2-3.9 0.4-8.4 0.7-13.3 0.3-4.8 0.6-10.1 1.1-15.7 0.4-5.5 0.9-11.4 1.6-17.5 1.2-12.1 3.1-25.1 5.5-38 1.3-6.5 2.7-13 4.4-19.3 1.5-6.4 3.5-12.6 5.5-18.6q1.5-4.4 3.2-8.7c1.2-2.8 2.2-5.6 3.5-8.2 1.2-2.7 2.4-5.2 3.6-7.7 1.2-2.5 2.6-4.8 3.8-7 1.3-2.2 2.5-4.3 3.7-6.3 1.4-1.9 2.6-3.7 3.8-5.4 1.3-1.7 2.4-3.3 3.5-4.7 1-1.4 2.2-2.6 3.2-3.7 4-4.5 6.5-6.8 6.5-6.8 0 0-0.6 3.5-2 9.1-0.3 1.4-0.8 2.9-1.1 4.6-0.3 1.8-0.7 3.6-1.1 5.5-0.4 2-0.9 4-1.4 6.2-0.4 2.1-0.8 4.4-1.3 6.8-1.1 4.6-1.9 9.8-2.9 15.1-0.6 2.7-1.1 5.5-1.6 8.3-0.4 2.9-1.1 5.7-1.5 8.7-1 5.9-2.2 11.9-3.2 18.1-1.2 6.2-2.3 12.5-3.6 18.8-1.2 6.4-2.5 12.7-3.9 19-1.4 6.2-2.9 12.4-4.5 18.3-1.6 6-3.2 11.7-5 17.2-1.8 5.4-3.6 10.5-5.5 15.2-1 2.3-1.8 4.5-2.8 6.6-0.9 2.1-1.8 4.1-2.8 6-1.8 3.7-3.4 6.9-5 9.4-3 5-5 7.8-5 7.8zm-257.4-209.1c0 0 0.1-1.6 0.4-4.6 0.1-1.4 0.4-3.3 0.8-5.4 0.1-1.1 0.3-2.3 0.6-3.5q0.4-1.9 0.8-4c1.4-5.5 3.4-12.2 6.7-19.5 3.2-7.3 7.6-15.3 13.5-23.4 5.9-8.1 13.2-16.1 21.7-23.8 8.7-7.5 18.6-14.7 29.5-20.8 10.9-6.1 22.9-11.3 35.4-15.3 6.3-2 12.7-3.7 19.3-5.1 3.3-0.6 6.5-1.3 9.9-1.7 1.6-0.3 3.3-0.6 4.9-0.8l3.8-0.4 0.6-0.1 1.1-0.1h0.3l4.7-0.2c1.7-0.1 3.6 0 5.5 0 1.9 0 3.5 0.2 5.3 0.3q2.6 0.1 5.1 0.4c6.9 0.6 13.6 1.9 20.1 3.5 3.2 0.8 6.4 1.7 9.6 2.7 3.1 1 6.2 2 9.2 3.2 6.1 2.2 12 4.9 17.6 7.7 11.2 5.8 21.4 12.5 30.2 19.9 8.9 7.3 16.4 15.3 22.5 23.4 6 8 10.4 16.2 13.4 23.8 2.9 7.6 4.4 14.5 5.1 20.2 0.4 2.8 0.6 5.3 0.6 7.6 0 2.2 0 4-0.1 5.5-0.3 3.1-0.4 4.6-0.4 4.6 0 0-0.4-1.5-1.1-4.4-0.3-1.5-0.8-3.2-1.5-5.2-0.5-2.1-1.5-4.3-2.4-6.9-2.1-4.9-4.9-10.8-9-16.9-4.1-6.1-9.3-12.5-15.8-18.6-6.4-6.2-14-12.2-22.6-17.7-8.6-5.5-18.2-10.5-28.4-14.8-5.2-2-10.4-4.1-15.9-5.7-5.4-1.6-10.9-3.1-16.5-4.3-5.6-1.2-11.3-2-17-2.5q-2.1-0.2-4.2-0.3c-1.4 0-2.9-0.2-4.2-0.1-1.3 0-2.5-0.1-3.9 0l-4.8 0.2-3.6 0.4c-1.5 0.2-3 0.4-4.4 0.6-2.9 0.4-5.8 1-8.7 1.5-5.8 1.1-11.6 2.4-17.2 3.9-5.6 1.7-11.1 3.4-16.5 5.3-5.4 2-10.6 4.1-15.7 6.5-10.1 4.6-19.5 10-27.9 15.8-8.5 5.8-16 12-22.4 18.3-6.5 6.3-11.8 12.7-16.2 18.7-4.5 6-7.8 11.7-10.4 16.5-1.3 2.4-2.4 4.5-3.3 6.5-0.9 1.9-1.7 3.5-2.3 4.9-1.2 2.8-1.8 4.2-1.8 4.2zm9.3 9.7c0.6-0.9 1.7-2 3-3.2 1.3-1.2 2.8-2.4 4.5-3.6 1.7-1.3 3.7-2.3 5.8-3.5 2.2-1 4.5-2 7-2.8 2.5-0.9 5.1-1.6 7.7-2.1 2.7-0.5 5.5-0.7 8.2-1 2.8-0.1 5.6-0.2 8.3 0.1 2.7 0.2 5.4 0.6 7.9 1.1q3.9 0.9 7.2 2.1c2.3 0.9 4.4 1.7 6.2 2.8q1.4 0.8 2.6 1.5 1.2 0.8 2.3 1.5c1.4 1.1 2.5 2 3.4 2.9 1.7 1.8 2.6 2.9 2.6 2.9 0 0-1.5 0.1-3.9 0-1.1-0.1-2.5 0-4.1 0-1.6-0.1-3.3-0.1-5.2 0-1.9-0.1-3.9 0-6 0q-3.1 0.1-6.5 0.2c-1.1 0.1-2.2 0.1-3.4 0.1-1.1 0-2.3 0.1-3.4 0.2-2.4 0-4.7 0.2-7.1 0.3-2.4 0.2-4.7 0.2-7 0.4-1.2 0.1-2.4 0.2-3.5 0.2q-1.7 0.2-3.4 0.3c-2.3 0.2-4.4 0.4-6.5 0.6-2 0.3-4.1 0.3-5.9 0.6-1.9 0.2-3.6 0.4-5.1 0.6-1.5 0.2-2.9 0.3-4.1 0.5-2.4 0.4-3.8 0.5-3.8 0.5 0 0 0.7-1.2 2.2-3.2zm101.5 3.2c0 0 1-1.2 2.9-3.1 1.9-1.9 4.8-4.4 8.5-6.9 3.8-2.5 8.4-5 13.7-7.1 1.3-0.5 2.7-1 4-1.4q2.1-0.7 4.3-1.3c2.9-0.8 5.9-1.3 9-1.7 3.1-0.4 6.2-0.6 9.3-0.5 3.1 0 6.1 0.4 9.1 1 3 0.5 5.8 1.4 8.4 2.5 2.6 1.1 4.9 2.4 6.9 3.8 1 0.7 1.9 1.5 2.7 2.2q1.2 1.2 2.2 2.2 1.9 2.3 2.9 4.1c0.8 1.2 1.1 2.3 1.4 2.9 0.3 0.7 0.4 1.1 0.4 1.1q0-0.1-1-0.5c-0.7-0.2-1.6-0.7-2.8-1.1-1.2-0.5-2.7-0.9-4.2-1.4-1.7-0.4-3.4-0.9-5.3-1.2-1-0.1-2-0.3-3-0.4q-1.5-0.2-3.2-0.3-3.2-0.2-6.8-0.1-1.8 0.1-3.6 0.1-1.9 0.2-3.8 0.3c-2.5 0.2-5.1 0.5-7.7 0.8-2.6 0.3-5.2 0.7-7.8 1.1q-3.9 0.6-7.7 1.2-3.8 0.6-7.4 1.2-3.6 0.5-6.7 1c-4.2 0.6-7.9 1-10.5 1.2-1.3 0.2-2.4 0.2-3.1 0.3-0.7 0-1.1 0-1.1 0zm108.3 4.5c0 0 0.1-0.3 0.3-1 0.2-0.6 0.5-1.5 1.2-2.7 0.6-1.2 1.4-2.4 2.5-3.9 1.1-1.4 2.5-2.8 4.2-4.3 1.6-1.4 3.6-2.8 5.7-4.1 2.1-1.3 4.5-2.5 7-3.5q1.8-0.8 3.8-1.4c1.3-0.5 2.7-0.8 4.1-1.2 2.7-0.6 5.5-1.1 8.4-1.4 2.9-0.2 5.8-0.3 8.6-0.1q2.1 0.1 4.2 0.5c1.4 0.1 2.8 0.4 4.1 0.7 2.7 0.7 5.2 1.5 7.6 2.5 2.3 1 4.5 2.2 6.3 3.5 1.9 1.4 3.4 2.8 4.6 4.2 0.6 0.7 1.2 1.3 1.6 2 0.4 0.7 0.8 1.3 1.1 1.9 0.6 1.1 0.9 2.1 1.1 2.8 0.2 0.7 0.3 1 0.3 1q0 0-1-0.4-0.4-0.2-1.1-0.5-0.6-0.3-1.4-0.6c-0.6-0.2-1.2-0.4-1.8-0.6q-1-0.3-2.1-0.5c-1.4-0.4-3.1-0.7-4.8-0.9q-2.7-0.3-5.7-0.5c-2-0.1-4.2 0-6.4-0.1-4.4 0.1-9.1 0.3-13.8 0.8-4.7 0.4-9.5 0.9-13.9 1.6-2.2 0.3-4.4 0.7-6.4 1.1-2.1 0.4-4 0.8-5.8 1.2-1.8 0.4-3.5 0.9-5 1.3-1.5 0.4-2.8 0.9-3.9 1.2-1.1 0.4-2.1 0.8-2.6 1-0.7 0.3-1 0.4-1 0.4zm-119.6 22.6c0 0 0.6 2.4 1.4 6.5 0.4 2.1 0.9 4.7 1.5 7.5q0.4 2.1 0.8 4.5 0.5 2.4 1.1 5c1.3 6.9 2.8 15 4.5 23.7 0.5 2.1 0.8 4.3 1.2 6.6 0.4 2.2 0.9 4.4 1.3 6.7 0.8 4.6 1.6 9.3 2.3 13.9 0.7 4.7 1.5 9.4 2 14.1q0.5 3.5 0.8 6.9c0.3 2.3 0.5 4.6 0.7 6.8 0.4 4.5 0.7 8.8 0.8 13q0.1 3.1 0.1 6 0 3-0.1 5.7c0 3.6-0.3 7-0.5 9.9-0.3 3-0.6 5.5-0.9 7.7-0.7 4.2-1.2 6.6-1.2 6.6 0 0-0.8-2.4-2-6.4-0.5-2.1-1.2-4.5-2-7.4-0.7-2.8-1.5-5.9-2.4-9.4-0.9-3.5-1.8-7.2-2.7-11.2-0.9-3.9-2-8.1-2.9-12.4q-1.4-6.5-2.7-13.4c-0.9-4.6-1.7-9.3-2.5-14-0.7-4.8-1.4-9.5-1.9-14.2-0.5-4.7-0.9-9.3-1.2-13.9-0.2-4.5-0.4-8.9-0.3-13 0.1-4.2 0.2-8.2 0.5-11.8q0.3-2.7 0.5-5.2c0.2-1.7 0.4-3.3 0.7-4.8 0.4-2.9 0.9-5.5 1.4-7.5 1-4.2 1.7-6.5 1.7-6.5zm103.8-6.8c0 0 0.6 2.5 1.3 6.8 0.4 2.1 0.7 4.8 1.1 7.8 0.2 1.5 0.4 3 0.6 4.7 0.1 1.7 0.1 3.5 0.2 5.4 0.1 3.8 0.1 7.9 0.1 12.2 0 2.2-0.2 4.4-0.4 6.6-0.1 2.3-0.4 4.5-0.6 6.9-0.4 4.6-0.9 9.4-1.8 14.2-0.7 4.8-1.6 9.7-2.5 14.5-1 4.8-2 9.6-3.2 14.3-1.1 4.7-2.3 9.2-3.4 13.7-1.2 4.4-2.5 8.6-3.6 12.7-1.2 4-2.3 7.8-3.4 11.3-1.2 3.5-2.2 6.7-3.1 9.6-0.9 2.8-1.7 5.3-2.5 7.4-1.5 4.1-2.5 6.4-2.5 6.4 0 0-0.3-2.5-0.6-6.8q-0.2-3.3-0.4-7.9c0-3.1-0.1-6.5 0.1-10.2 0.2-3.8 0.4-7.8 0.8-12 0.3-4.3 0.9-8.7 1.5-13.3 0.3-2.3 0.7-4.6 1-6.9q0.6-3.6 1.2-7.1c0.8-4.7 1.8-9.5 2.7-14.3 1-4.8 1.9-9.5 3-14.2 0.5-2.3 1.1-4.6 1.6-6.9 0.5-2.2 0.9-4.5 1.4-6.7 1-4.4 2.2-8.7 3-12.7 0.8-4 1.7-7.8 2.6-11.3q0.7-2.7 1.3-5.1c0.3-1.7 0.6-3.3 0.9-4.7 0.6-3 1.2-5.6 1.7-7.7 1.1-4.3 1.9-6.7 1.9-6.7z"/>
</svg>