<?xml version="1.0" encoding="utf-8"?>
<!-- Generator: Adobe Illustrator 24.0.2, SVG Export Plug-In . SVG Version: 6.00 Build 0)  -->
<svg version="1.1" id="Camada_1" xmlns="http://www.w3.org/2000/svg" xmlns:xlink="http://www.w3.org/1999/xlink" x="0px" y="0px"
	 viewBox="0 0 2000 1989.41" style="enable-background:new 0 0 2000 1989.41;" xml:space="preserve">
<style type="text/css">
	.st0{fill:#D8A35D;}
</style>
<g>
	<g>
		<g>
			<g>
				<path class="st0" d="M994.68,1989.41c-87.85,0-175.74-11.43-260.32-34.44c-47.4-12.46-97.08-30.25-147.58-52.9
					c-50.27-22.66-97.13-48.47-139.22-76.6c-91.42-60.51-170.97-133.98-236.45-218.27c-33.99-43.52-64.32-89.47-90.05-136.58
					c-26.1-48.23-48.49-98.97-66.46-150.81c-35.61-101.2-54-210.65-54.6-325.18c0.67-114.6,19.03-224.04,54.67-325.26
					C72.65,617.6,95,566.87,121.16,518.64c25.73-47.07,55.99-93.01,90.1-136.62c65.51-84.31,145.07-157.7,236.46-218.18
					c42.19-28.24,89.03-53.97,139.24-76.57c50.59-22.63,100.28-40.43,147.61-52.86c192.12-52.19,401.05-44.82,588.32,20.89
					c47.98,16.87,90.23,35.08,129.13,55.64c15.5,7.59,30.54,16.39,45.09,24.86c4.91,2.89,9.82,5.77,14.81,8.61l33.4,21.42
					c3.18,2.01,6.36,4.03,9.43,6.29l19.22,13.62c6.59,4.65,13.11,9.26,19.38,14.04l26.01,20.4
					c52.86,42.36,101.22,90.51,147.83,147.18c14.83,18.7,27.69,35.07,35.56,46.65l11.89,16.76c1.28,1.76,0.86,4.2-0.87,5.42
					c-1.81,1.25-4.23,0.85-5.46-0.92l-11.94-16.83c-7.78-11.43-20.59-27.67-35.24-46.17c-46.26-56.24-94.2-103.96-146.6-145.97
					l-25.95-20.33c-6.14-4.68-12.6-9.27-19.11-13.88l-19.3-13.66c-2.95-2.16-5.94-4.07-9.02-6.03c-1.63-1.02-3.25-2.07-4.9-3.15
					l-28.42-18.2c-4.78-2.73-9.71-5.61-14.69-8.51c-14.4-8.42-29.31-17.15-44.68-24.67c-38.67-20.44-80.52-38.45-128.13-55.22
					C1134.52-2.59,927.22-9.92,736.58,41.85c-46.94,12.39-96.22,30.03-146.45,52.53c-49.78,22.41-96.24,47.96-138.11,75.92
					c-90.67,60-169.6,132.84-234.66,216.53c-33.77,43.24-63.86,88.85-89.38,135.52c-25.94,47.87-48.12,98.2-65.98,149.61
					C26.69,772.36,8.44,880.9,7.74,994.63c0.62,113.66,18.86,222.21,54.2,322.59c17.83,51.5,40.05,101.8,65.93,149.63
					c25.56,46.76,55.62,92.39,89.34,135.56c65.03,83.67,143.94,156.53,234.68,216.57c41.78,27.92,88.23,53.52,138.07,76
					c50.14,22.46,99.37,40.09,146.39,52.48c190.65,51.83,398,44.49,583.78-20.6c47.48-16.69,89.41-34.77,128.03-55.16
					c15.54-7.59,30.54-16.34,45.07-24.8c4.87-2.87,9.73-5.67,14.61-8.5l33.14-21.23c3.1-1.92,6.08-3.87,9-5.97l19.42-13.77
					c6.55-4.64,13.01-9.23,19.24-13.93l25.87-20.32c52.35-41.92,100.3-89.72,146.63-145.99c14.62-18.48,27.45-34.75,35.18-46.11
					l11.95-16.86c1.23-1.75,3.67-2.18,5.43-0.92c1.78,1.22,2.16,3.65,0.92,5.41l-11.94,16.86c-7.8,11.45-20.69,27.84-35.5,46.51
					c-46.67,56.76-95.04,104.91-147.85,147.19l-25.97,20.37c-6.35,4.83-12.87,9.44-19.47,14.15l-19.39,13.7
					c-2.95,2.2-6.15,4.2-9.31,6.27l-33.33,21.32c-5.04,2.85-9.89,5.69-14.72,8.52c-14.65,8.52-29.75,17.35-45.43,25.05
					c-38.93,20.49-81.13,38.72-128.98,55.56C1217.89,1970.94,1106.26,1989.41,994.68,1989.41z"/>
			</g>
			<g>
				<g>
					<path class="st0" d="M993.85,1917.44c-0.8,0-1.6,0-2.43,0c-5.85-0.2-11.5-0.33-17.16-0.44c-14.93-0.28-30.37-0.64-45.73-2.1
						c-35.83-2.13-75.4-7.58-124.15-17.23c-41.74-8.98-82.41-20.47-121.06-34.26c-47.36-17.66-82.9-33.26-115.22-50.62
						c-149.26-77.9-274.56-195.37-362.27-339.5c-86.1-141.45-133.58-311.35-133.65-478.58c0.06-167.18,47.54-337.15,133.65-478.58
						c87.71-144.16,213.01-261.58,362.4-339.55c32.19-17.33,67.73-32.92,114.96-50.53c38.78-13.81,79.45-25.32,121.11-34.28
						c48.83-9.68,88.4-15.12,124.55-17.26c15.04-1.46,30.48-1.76,45.42-2.11c5.66-0.08,11.3-0.25,16.93-0.43
						c7.21-0.03,14.17,0.16,21.09,0.34l13.98,0.35c9.18,0.23,18.69,0.45,28.12,1.35c164.78,9.7,331.34,67.99,468.7,164.14
						c117.07,81.48,215.34,191.62,284.2,318.47c34.04,63.52,60.72,130.79,79.32,200.05c18.14,66.76,28.45,138.32,30.55,212.75
						c0.15,4.27-3.26,7.85-7.55,8.02c-4.36,0.18-7.85-3.32-7.99-7.56c-2.08-73.19-12.18-143.56-30.04-209.19
						c-18.31-68.1-44.54-134.27-77.96-196.71c-67.71-124.66-164.33-232.97-279.45-313.07c-135.04-94.53-298.75-151.85-460.97-161.39
						c-9.2-0.85-18.43-1.1-27.32-1.28l-14-0.34c-6.79-0.2-13.58-0.42-20.36-0.37c-5.52,0.22-11.21,0.35-16.93,0.44
						c-14.64,0.29-29.85,0.63-44.55,2.08c-35.71,2.09-74.64,7.51-122.62,16.97c-40.83,8.77-80.87,20.15-118.89,33.65
						c-46.48,17.35-81.37,32.68-113.04,49.68c-147,76.7-270.18,192.14-356.37,333.92C134.48,663.24,87.83,830.31,87.75,994.71
						c0.08,164.36,46.73,331.47,131.37,470.45c86.2,141.78,209.38,257.2,356.27,333.89c31.78,17.07,66.67,32.41,113.28,49.72
						c37.89,13.49,77.93,24.85,118.86,33.69c47.88,9.43,86.81,14.86,122.19,16.91c15.03,1.44,30.23,1.75,44.87,2.09
						c5.72,0.1,11.41,0.24,17.14,0.44c6.58,0.04,13.36-0.16,20.16-0.36l14-0.34c8.89-0.2,18.12-0.44,27.08-1.25
						c162.46-9.57,326.16-66.9,461.18-161.43c115.14-80.12,211.76-188.41,279.48-313.19c33.39-62.28,59.64-128.46,77.95-196.6
						c17.86-65.59,27.96-135.97,30.04-209.18c0.14-4.27,3.62-7.82,7.99-7.54c4.29,0.14,7.7,3.73,7.55,8
						c-2.11,74.44-12.41,146.04-30.55,212.77c-18.61,69.29-45.3,136.58-79.28,199.99c-68.91,126.86-167.18,237.05-284.24,318.52
						c-137.36,96.1-303.92,154.43-468.94,164.13c-9.2,0.87-18.7,1.12-27.89,1.32l-13.98,0.35
						C1006.17,1917.28,1000.02,1917.44,993.85,1917.44z"/>
				</g>
				<g>
					<g>
						<path class="st0" d="M1932.78,967.68c0.38,14.95-9.85,27.08-22.74,27.02c-12.93-0.06-23.65-11.57-24.05-25.73
							c-0.27-14.17,9.65-26.27,22.39-27.05C1921.46,941.11,1932.48,952.63,1932.78,967.68z"/>
					</g>
				</g>
				<g>
					<g>
						<path class="st0" d="M1932.78,1021.75c0.38-14.99-9.85-27.11-22.74-27.05c-12.93,0.05-23.65,11.6-24.05,25.74
							c-0.27,14.12,9.65,26.27,22.39,27.05C1921.46,1048.31,1932.48,1036.76,1932.78,1021.75z"/>
					</g>
				</g>
			</g>
			<g>
				<g>
					<path class="st0" d="M994.8,1841.18c-74.79,0-149.62-9.8-221.69-29.38c-40.36-10.61-81.42-25.32-125.4-45
						c-43.03-19.42-82.89-41.32-118.47-65.17c-77.97-51.67-145.72-114.19-201.29-185.83c-114.37-144.17-179.8-334.15-179.59-521.19
						c-0.2-187,65.32-376.98,179.76-521.15c55.6-71.62,123.32-134.15,201.32-185.83c35.6-23.8,75.46-45.75,118.46-65.11
						c44.09-19.72,85.13-34.41,125.45-44.97c163.58-44.5,341.41-38.19,500.67,17.8c41.27,14.56,77.18,30.08,109.77,47.34
						c12.53,6.06,24.71,13.2,36.52,20.09c4.74,2.8,9.48,5.56,14.26,8.26l24.48,15.65c1.48,0.93,2.88,1.83,4.24,2.71
						c2.76,1.74,5.45,3.45,8.07,5.38l9,6.4c2.81,2.07,5.66,4.04,8.41,6.01c5.24,3.67,10.34,7.3,15.29,11.07l22.09,17.32
						c44.78,35.87,85.9,76.8,125.89,125.34l0.88,1.16c12.9,16.31,23.09,29.2,29.5,38.71l11.97,16.95c1.22,1.87,3.11,4.71,5.15,8.55
						c5.32,9.49,10.62,19.8,15.67,30.45c16.5,38.41,25.65,73.83,28.27,108.57c0.24,3.15,0.46,6.31,0.63,9.38
						c1.59-1.06,3.23-2.11,4.89-3.15c33.54-21.27,65.1-33.4,96.48-37.06c18.31-2.12,36.76-1.3,54.83,2.43
						c9.54,2,19.26,4.89,28.91,8.52c9.68,3.86,19.17,8.56,29.12,14.45l18.27,11.1l-8.07,13.31l-18.22-11.05
						c-9.16-5.42-17.94-9.79-26.76-13.29c-8.74-3.33-17.67-5.97-26.43-7.76c-16.48-3.41-33.26-4.22-49.86-2.27
						c-28.99,3.39-58.44,14.75-89.96,34.73c-4.25,2.74-8.54,5.56-12.83,8.55c-0.35,39.44-8.59,76.33-24.29,107.93
						c-4.8,10.41-11.19,21.12-18.8,31.74c-7.75,10.73-15.75,20.19-24.5,28.91c-19.68,19.06-41.74,34.36-67.44,46.83
						c-26.82,12.78-48.97,19.21-64.02,19.25c-8.27-0.18-14.26-2.57-17.84-7.15c-3.33-4.31-4.24-10.07-2.64-17.11
						c2.41-10.25,11.23-22.88,25.56-41.29c5.44-6.98,11.99-14.47,18.89-22.37l3.96-4.54c8.09-9.36,17.45-19.71,27.72-30.73
						c17.43-18.79,40.83-43.55,67.23-68.4c21.79-20.64,41.51-37.25,60.57-51.06c-0.1-6.7-0.46-12.96-0.95-18.68
						c-2.44-33.08-11.27-66.91-26.92-103.41c-4.77-10.12-9.88-20.07-15.1-29.36c-1.8-3.33-3.39-5.76-4.44-7.34l-11.86-16.79
						c-6.15-9.18-16.2-21.86-28.9-37.91l-0.81-1.06c-24.94-30.31-65.03-76.12-123.46-122.93l-21.91-17.2
						c-4.7-3.56-9.7-7.09-14.75-10.66c-2.79-1.99-5.65-4.01-8.54-6.09l-9.04-6.44c-2.41-1.73-4.83-3.28-7.25-4.81
						c-1.5-0.93-2.96-1.9-4.43-2.87l-24-15.34c-4.45-2.5-9.29-5.32-14.09-8.17c-11.55-6.7-23.5-13.7-35.71-19.65
						c-32.13-17.01-67.36-32.2-107.88-46.51c-156.31-54.91-330.88-61.12-491.47-17.43c-39.57,10.36-79.85,24.78-123.14,44.15
						c-42.21,18.98-81.3,40.5-116.21,63.88c-76.58,50.73-143.13,112.06-197.69,182.39c-112.34,141.57-176.64,328.02-176.41,511.6
						c-0.26,183.62,63.98,370.04,176.27,511.56c54.61,70.37,121.05,131.78,197.66,182.54c34.87,23.35,73.97,44.84,116.21,63.9
						c43.18,19.3,83.48,33.76,123.06,44.14c160.69,43.75,335.2,37.57,491.56-17.34c40.38-14.2,75.61-29.41,107.65-46.38
						c12.39-6.04,24.27-12.91,35.78-19.58c4.89-2.86,9.75-5.72,14.65-8.48l27.96-17.95c2.45-1.56,4.89-3.11,7.26-4.83l17.75-12.63
						c5.07-3.58,10.08-7.09,14.86-10.81l21.88-17.11c58.29-46.66,98.41-92.53,123.52-123.02l1.36-1.71
						c12.39-15.66,22.17-28.06,28.14-36.97l12-16.97c1.05-1.56,2.62-3.97,4.35-7.18c3.64-6.5,9.09-16.74,15.31-29.76
						c15.54-36.26,24.34-70.05,26.81-103.05c0.47-5.79,0.83-12.06,0.94-18.7c-19.07-13.83-38.82-30.48-60.63-51.12
						c-26.42-24.91-49.81-49.66-67.2-68.45c-10.29-10.98-19.6-21.3-27.7-30.69l-3.87-4.41c-6.93-7.99-13.52-15.49-18.94-22.4
						c-14.38-18.53-23.17-31.16-25.58-41.34c-1.61-7.07-0.69-12.89,2.65-17.15c3.56-4.6,9.55-6.97,17.76-7.16
						c14.95-0.16,37.24,6.44,64.02,19.2c25.75,12.5,47.82,27.81,67.44,46.82c8.83,8.86,16.85,18.27,24.56,28.97
						c7.64,10.65,14.03,21.42,18.88,31.94c15.63,31.43,23.86,68.33,24.19,107.79c4.31,2.94,8.6,5.8,12.83,8.51
						c31.54,19.98,60.96,31.35,89.98,34.73c16.58,1.94,33.35,1.19,49.82-2.22c8.85-1.86,17.78-4.48,26.54-7.78
						c8.75-3.51,17.52-7.87,26.74-13.33l18.17-10.96l8.04,13.26l-18.2,11.04c-10.03,5.92-19.51,10.68-29.13,14.44
						c-9.58,3.67-19.31,6.55-28.98,8.54c-18.13,3.8-36.58,4.6-54.82,2.46c-31.36-3.67-62.94-15.79-96.48-37.04
						c-1.64-1.03-3.29-2.09-4.9-3.16c-0.16,3.15-0.36,6.27-0.63,9.43c-2.58,34.65-11.74,70.06-28.14,108.22
						c-5.21,11.05-10.5,21.33-15.82,30.83c-2,3.75-3.87,6.57-5.15,8.5l-12.06,17.1c-6.19,9.15-16.12,21.78-28.73,37.75l-1.43,1.83
						c-25.67,31.11-66.51,77.82-125.96,125.39l-22.02,17.3c-5.03,3.83-10.19,7.49-15.41,11.15l-17.67,12.58
						c-2.5,1.85-5.26,3.6-8.03,5.34l-28.23,18.07c-5.19,3.02-10.03,5.77-14.86,8.61c-11.72,6.84-23.84,13.93-36.58,20.05
						c-32.45,17.22-68.35,32.7-109.51,47.22C1184.71,1825.44,1089.77,1841.18,994.8,1841.18z M1546.18,1077.1c-0.17,0-0.35,0-0.49,0
						c-4.6,0.12-5.78,1.16-5.78,1.16c-0.15,0.23-0.37,1.46,0.22,4.1c1.83,7.71,11.97,21.48,22.62,35.22
						c5.19,6.59,11.67,13.96,18.46,21.8l3.89,4.43c7.99,9.25,17.22,19.48,27.37,30.31c17.24,18.6,40.37,43.1,66.51,67.72
						c17.74,16.78,34,30.84,49.58,42.78c-1.41-27.43-7.21-59.04-22.27-89.4c-4.59-9.84-10.43-19.69-17.54-29.55
						c-7.2-9.99-14.63-18.86-22.81-26.99c-18.35-17.77-39.05-32.16-63.3-43.9C1570.68,1079.52,1553.64,1077.1,1546.18,1077.1z
						 M1539.93,911.18c0,0,1.17,1.04,5.78,1.16c7.33,0.3,24.25-2.13,56.98-17.74c24.21-11.69,44.91-26.08,63.31-43.91
						c8.07-8.02,15.53-16.85,22.75-26.93c7.09-9.77,12.95-19.69,17.48-29.38c15.09-30.43,20.92-62.1,22.33-89.56
						c-15.58,12.03-31.82,26.04-49.56,42.81c-26.09,24.56-49.24,49.08-66.51,67.68c-10.19,10.87-19.4,21.07-27.4,30.3l-3.93,4.58
						c-6.8,7.75-13.23,15.1-18.43,21.71c-10.63,13.69-20.8,27.4-22.62,35.2C1539.54,909.73,1539.77,910.98,1539.93,911.18
						L1539.93,911.18z"/>
				</g>
			</g>
			<g>
				<g>
					<path class="st0" d="M1999.99,680.17c0.42,15.04-9.82,27.11-22.7,27.06c-12.94-0.08-23.7-11.56-24.06-25.73
						c-0.24-14.16,9.68-26.28,22.44-27.06C1988.72,653.65,1999.74,665.15,1999.99,680.17z"/>
				</g>
			</g>
			<g>
				<g>
					<path class="st0" d="M1995.21,1308.81c0.36,15.02-9.87,27.13-22.76,27.06c-12.93-0.04-23.63-11.56-24.04-25.7
						c-0.24-14.17,9.68-26.27,22.41-27.04C1983.87,1282.29,1994.94,1293.8,1995.21,1308.81z"/>
				</g>
			</g>
		</g>
		<path class="st0" d="M1098.75,421.39c-15.06,24.93-39.11,46.1-72.17,63.48c-33.07,17.37-64.85,26.09-95.34,26.09
			c-30.1,0-72.44-8.8-126.95-26.43c-54.17-17.58-89.17-26.39-105.1-26.39c-29.6,0-55.08,11.32-76.34,34.15
			c-21.28,22.78-31.9,50.25-31.9,82.49c0,31.39,9.78,57.06,29.34,77.02c19.58,19.97,43.77,35.68,72.78,47.06
			c29,11.4,74.27,25.64,135.71,42.82c61.44,16.76,110.81,33.2,148.2,49.3c37.39,16.08,69.07,40.14,95.01,72.16
			c26.05,31.99,39.03,73.99,39.03,125.99c0,77.76-31.88,146.94-95.72,207.52c-63.77,60.55-142.73,90.84-236.85,90.84
			c-85.84,0-157.11-22.57-213.57-67.66c-56.53-45.15-84.75-98.81-84.75-161.09c0-46,16.55-84.3,49.62-115.06
			c33.08-30.76,75.8-46.09,128.21-46.09c55.03,0,101.53,15.19,139.56,45.45c37.98,30.28,57.05,66.25,57.05,107.96
			c0,28.35-9.81,51.6-29.35,69.9c-19.56,18.28-43.06,27.35-70.58,27.35c-45.53,0-79.44-21.01-101.82-63.09l16.16-9.08
			c16.33,16.78,34.34,25.16,54.1,25.16c21.04,0,38.55-7.43,52.53-22.26c13.96-14.8,20.94-33.36,20.94-55.7
			c0-27.94-11.71-51.25-35.14-69.93c-23.4-18.7-51.63-28.05-84.74-28.05c-38.65,0-70.76,14.2-96.37,42.57
			c-25.58,28.35-38.27,62.27-38.27,101.84c0,51.93,22.85,96.63,68.61,134c45.77,37.39,103.41,56.08,173.01,56.08
			c74.33,0,136.15-23.32,185.62-70.02c49.34-46.64,74.09-101.35,74.09-164.07c0-43.06-11.5-77.87-34.39-104.45
			c-23.01-26.69-50.51-46.7-82.51-60.06c-31.98-13.29-76.54-28.05-133.73-44.28c-57.15-16.24-101.77-31.02-133.78-44.34
			c-31.98-13.29-58.86-32.63-80.55-57.97c-21.72-25.38-32.51-58.41-32.51-99.26c0-55.84,22.08-103.86,66.37-144.04
			c44.22-40.13,95.53-60.21,153.96-60.21c27.1,0,65.77,7.06,116.03,21.23c50.67,13.75,87.2,20.64,109.57,20.64
			c36.5,0,68.33-14.39,95.35-43.17L1098.75,421.39z"/>
		<path class="st0" d="M1098.75,421.39c-15.06,24.93-39.11,46.1-72.17,63.48c-33.07,17.37-64.85,26.09-95.34,26.09
			c-30.1,0-72.44-8.8-126.95-26.43c-54.17-17.58-89.17-26.39-105.1-26.39c-29.6,0-55.08,11.32-76.34,34.15
			c-21.28,22.78-31.9,50.25-31.9,82.49c0,31.39,9.78,57.06,29.34,77.02c19.58,19.97,43.77,35.68,72.78,47.06
			c29,11.4,74.27,25.64,135.71,42.82c61.44,16.76,110.81,33.2,148.2,49.3c37.39,16.08,69.07,40.14,95.01,72.16
			c26.05,31.99,39.03,73.99,39.03,125.99c0,77.76-31.88,146.94-95.72,207.52c-63.77,60.55-142.73,90.84-236.85,90.84
			c-85.84,0-157.11-22.57-213.57-67.66c-56.53-45.15-84.75-98.81-84.75-161.09c0-46,16.55-84.3,49.62-115.06
			c33.08-30.76,75.8-46.09,128.21-46.09c55.03,0,101.53,15.19,139.56,45.45c37.98,30.28,57.05,66.25,57.05,107.96
			c0,28.35-9.81,51.6-29.35,69.9c-19.56,18.28-43.06,27.35-70.58,27.35c-45.53,0-79.44-21.01-101.82-63.09l16.16-9.08
			c16.33,16.78,34.34,25.16,54.1,25.16c21.04,0,38.55-7.43,52.53-22.26c13.96-14.8,20.94-33.36,20.94-55.7
			c0-27.94-11.71-51.25-35.14-69.93c-23.4-18.7-51.63-28.05-84.74-28.05c-38.65,0-70.76,14.2-96.37,42.57
			c-25.58,28.35-38.27,62.27-38.27,101.84c0,51.93,22.85,96.63,68.61,134c45.77,37.39,103.41,56.08,173.01,56.08
			c74.33,0,136.15-23.32,185.62-70.02c49.34-46.64,74.09-101.35,74.09-164.07c0-43.06-11.5-77.87-34.39-104.45
			c-23.01-26.69-50.51-46.7-82.51-60.06c-31.98-13.29-76.54-28.05-133.73-44.28c-57.15-16.24-101.77-31.02-133.78-44.34
			c-31.98-13.29-58.86-32.63-80.55-57.97c-21.72-25.38-32.51-58.41-32.51-99.26c0-55.84,22.08-103.86,66.37-144.04
			c44.22-40.13,95.53-60.21,153.96-60.21c27.1,0,65.77,7.06,116.03,21.23c50.67,13.75,87.2,20.64,109.57,20.64
			c36.5,0,68.33-14.39,95.35-43.17L1098.75,421.39z"/>
		<path class="st0" d="M1079.28,1348.02c0,0,0.39,0.2,1.16,0.73c0.79,0.45,1.91,1.18,3.28,2.38c2.74,2.27,6.49,6.13,10.35,11.59
			c3.87,5.49,7.97,12.5,12.11,20.77c4.11,8.28,8.28,17.77,12.4,28.23c4.14,10.46,8.26,21.87,12.54,33.79
			c2.2,5.9,4.29,12.02,6.67,18.05c1.15,2.98,2.41,5.92,3.62,8.75l0.93,2.08l1.21,3.28l0.94,2.4l0.96,2.68
			c2.45,7.26,4.31,14.33,6.08,21.58c1.74,7.16,3.18,14.4,4.62,21.32c2.96,13.81,6.3,26.92,12.68,34.62
			c1.58,1.89,3.27,3.61,5.27,5.11c2.05,1.44,4.17,2.83,6.69,3.86c1.21,0.62,2.63,1.03,3.88,1.51c1.41,0.45,2.81,0.93,4.25,1.33
			c1.49,0.32,2.91,0.76,4.46,1.03l2.28,0.35l1.16,0.26l0.28,0.01c-0.89-0.06-0.15-0.01-0.31-0.01h0.2l0.68,0.13
			c7.21,0.77,14.42,1.58,21.46,2.5c6.88,0.62,13.59,0.96,20.3,1.59c6.58,0.63,13.43,0.62,19.95,1.07c3.26,0.16,6.55,0.44,9.76,0.46
			c3.22,0.16,6.38,0.21,9.55,0.28c12.59,0.53,24.55,0.71,35.65,1.12c11.11,0.29,21.31,0.62,30.34,1.05
			c9.08,0.46,16.98,0.87,23.52,1.41c6.52,0.45,11.65,1.03,15.11,1.29c3.53,0.41,5.34,0.61,5.34,0.61s-1.8,0.38-5.28,1.09
			c-3.42,0.68-8.42,1.71-14.85,2.81c-12.85,2.34-31.14,5.51-53.28,8.58c-11.12,1.43-23.09,2.94-35.96,3.95
			c-6.43,0.66-13.05,1.12-19.84,1.4c-3.4,0.17-6.81,0.33-10.28,0.47c-3.5,0.14-6.99,0.29-10.62,0.23c-7.19,0-14.58-0.07-21.98-0.27
			c-7.12-0.46-14.35-0.95-21.57-1.51l-0.69-0.1l-0.85-0.06l-0.36-0.04l-1.59-0.24l-3.05-0.44c-2.07-0.29-4.24-0.8-6.29-1.21
			c-2.14-0.53-4.3-1.14-6.44-1.75c-2.09-0.77-4.28-1.39-6.38-2.4c-4.32-1.76-8.51-4.28-12.51-7.08c-3.94-2.91-7.58-6.44-10.66-10.2
			c-3.05-3.84-5.49-7.96-7.58-12.1c-1.97-4.09-3.49-8.2-4.84-12.21c-2.54-8.11-3.95-15.8-5.25-23.15c-1.2-7.15-2.39-14.2-3.57-21.18
			c-1.18-6.76-2.59-13.37-4.1-19.43l-0.54-2.26l-0.72-2.47l-0.38-1.29l-0.17-0.58l-0.07-0.19c0.15,0.37-0.36-0.97,0.33,0.69
			l-0.14-0.31l-1-2.67c-1.18-3.49-2.18-6.95-3.13-10.3c-1.77-6.67-3.42-13.11-4.83-19.34c-2.84-12.53-5.27-24.23-7.64-35.06
			c-2.35-10.77-4.59-20.57-6.81-29.2c-2.22-8.6-4.55-15.98-6.77-21.92c-2.27-5.94-4.54-10.43-6.46-13.26
			c-0.48-0.72-0.89-1.32-1.26-1.85c-0.44-0.56-0.79-0.94-1.04-1.33C1079.59,1348.36,1079.28,1348.02,1079.28,1348.02z"/>
		<path class="st0" d="M1079.28,1348.02c0,0,0.39,0.2,1.16,0.73c0.79,0.45,1.91,1.18,3.28,2.38c2.74,2.27,6.49,6.13,10.35,11.59
			c3.87,5.49,7.97,12.5,12.11,20.77c4.11,8.28,8.28,17.77,12.4,28.23c4.14,10.46,8.26,21.87,12.54,33.79
			c2.2,5.9,4.29,12.02,6.67,18.05c1.15,2.98,2.41,5.92,3.62,8.75l0.93,2.08l1.21,3.28l0.94,2.4l0.96,2.68
			c2.45,7.26,4.31,14.33,6.08,21.58c1.74,7.16,3.18,14.4,4.62,21.32c2.96,13.81,6.3,26.92,12.68,34.62
			c1.58,1.89,3.27,3.61,5.27,5.11c2.05,1.44,4.17,2.83,6.69,3.86c1.21,0.62,2.63,1.03,3.88,1.51c1.41,0.45,2.81,0.93,4.25,1.33
			c1.49,0.32,2.91,0.76,4.46,1.03l2.28,0.35l1.16,0.26l0.28,0.01c-0.89-0.06-0.15-0.01-0.31-0.01h0.2l0.68,0.13
			c7.21,0.77,14.42,1.58,21.46,2.5c6.88,0.62,13.59,0.96,20.3,1.59c6.58,0.63,13.43,0.62,19.95,1.07c3.26,0.16,6.55,0.44,9.76,0.46
			c3.22,0.16,6.38,0.21,9.55,0.28c12.59,0.53,24.55,0.71,35.65,1.12c11.11,0.29,21.31,0.62,30.34,1.05
			c9.08,0.46,16.98,0.87,23.52,1.41c6.52,0.45,11.65,1.03,15.11,1.29c3.53,0.41,5.34,0.61,5.34,0.61s-1.8,0.38-5.28,1.09
			c-3.42,0.68-8.42,1.71-14.85,2.81c-12.85,2.34-31.14,5.51-53.28,8.58c-11.12,1.43-23.09,2.94-35.96,3.95
			c-6.43,0.66-13.05,1.12-19.84,1.4c-3.4,0.17-6.81,0.33-10.28,0.47c-3.5,0.14-6.99,0.29-10.62,0.23c-7.19,0-14.58-0.07-21.98-0.27
			c-7.12-0.46-14.35-0.95-21.57-1.51l-0.69-0.1l-0.85-0.06l-0.36-0.04l-1.59-0.24l-3.05-0.44c-2.07-0.29-4.24-0.8-6.29-1.21
			c-2.14-0.53-4.3-1.14-6.44-1.75c-2.09-0.77-4.28-1.39-6.38-2.4c-4.32-1.76-8.51-4.28-12.51-7.08c-3.94-2.91-7.58-6.44-10.66-10.2
			c-3.05-3.84-5.49-7.96-7.58-12.1c-1.97-4.09-3.49-8.2-4.84-12.21c-2.54-8.11-3.95-15.8-5.25-23.15c-1.2-7.15-2.39-14.2-3.57-21.18
			c-1.18-6.76-2.59-13.37-4.1-19.43l-0.54-2.26l-0.72-2.47l-0.38-1.29l-0.17-0.58l-0.07-0.19c0.15,0.37-0.36-0.97,0.33,0.69
			l-0.14-0.31l-1-2.67c-1.18-3.49-2.18-6.95-3.13-10.3c-1.77-6.67-3.42-13.11-4.83-19.34c-2.84-12.53-5.27-24.23-7.64-35.06
			c-2.35-10.77-4.59-20.57-6.81-29.2c-2.22-8.6-4.55-15.98-6.77-21.92c-2.27-5.94-4.54-10.43-6.46-13.26
			c-0.48-0.72-0.89-1.32-1.26-1.85c-0.44-0.56-0.79-0.94-1.04-1.33C1079.59,1348.36,1079.28,1348.02,1079.28,1348.02z"/>
		<path class="st0" d="M1396.42,1580.05c0,0-0.17-3.94,0.16-10.68c0.15-3.34,0.3-7.39,0.48-11.93c0.18-4.59,0.49-9.69,0.78-15.27
			c0.39-5.57,0.73-11.57,1.26-17.89c0.52-6.4,1.03-13.11,1.84-20.03c1.38-13.89,3.51-28.7,6.3-43.49
			c1.55-7.46,3.04-14.81,4.98-22.09c1.79-7.26,4.06-14.37,6.32-21.15c1.19-3.41,2.43-6.78,3.77-10c1.24-3.26,2.37-6.42,3.9-9.43
			c1.38-3.07,2.76-5.92,4.15-8.76c1.3-2.82,2.92-5.5,4.36-8c1.47-2.51,2.81-4.9,4.22-7.19c1.53-2.21,2.94-4.27,4.36-6.18
			c1.39-1.95,2.66-3.73,3.9-5.36c1.24-1.62,2.56-3.04,3.67-4.31c4.61-5.08,7.43-7.74,7.43-7.74s-0.67,4-2.21,10.44
			c-0.34,1.64-0.91,3.34-1.23,5.29c-0.38,1.97-0.86,4.07-1.31,6.32c-0.48,2.18-1.06,4.52-1.56,6.98c-0.45,2.5-1,5.09-1.51,7.78
			c-1.22,5.32-2.18,11.22-3.38,17.35c-0.65,3.04-1.21,6.22-1.78,9.48c-0.43,3.26-1.27,6.48-1.8,9.86
			c-1.06,6.76-2.45,13.63-3.63,20.71c-1.38,7.07-2.62,14.32-4.07,21.53c-1.36,7.29-2.91,14.44-4.46,21.64
			c-1.58,7.13-3.24,14.26-5.13,21.01c-1.85,6.84-3.76,13.42-5.76,19.61c-2.06,6.21-4.09,12.03-6.28,17.39
			c-1.08,2.66-2.08,5.19-3.17,7.56c-1.08,2.45-2.16,4.72-3.2,6.83c-2.05,4.27-3.91,7.9-5.68,10.74
			C1398.69,1576.86,1396.42,1580.05,1396.42,1580.05z"/>
		<path class="st0" d="M1396.42,1580.05c0,0-0.17-3.94,0.16-10.68c0.15-3.34,0.3-7.39,0.48-11.93c0.18-4.59,0.49-9.69,0.78-15.27
			c0.39-5.57,0.73-11.57,1.26-17.89c0.52-6.4,1.03-13.11,1.84-20.03c1.38-13.89,3.51-28.7,6.3-43.49
			c1.55-7.46,3.04-14.81,4.98-22.09c1.79-7.26,4.06-14.37,6.32-21.15c1.19-3.41,2.43-6.78,3.77-10c1.24-3.26,2.37-6.42,3.9-9.43
			c1.38-3.07,2.76-5.92,4.15-8.76c1.3-2.82,2.92-5.5,4.36-8c1.47-2.51,2.81-4.9,4.22-7.19c1.53-2.21,2.94-4.27,4.36-6.18
			c1.39-1.95,2.66-3.73,3.9-5.36c1.24-1.62,2.56-3.04,3.67-4.31c4.61-5.08,7.43-7.74,7.43-7.74s-0.67,4-2.21,10.44
			c-0.34,1.64-0.91,3.34-1.23,5.29c-0.38,1.97-0.86,4.07-1.31,6.32c-0.48,2.18-1.06,4.52-1.56,6.98c-0.45,2.5-1,5.09-1.51,7.78
			c-1.22,5.32-2.18,11.22-3.38,17.35c-0.65,3.04-1.21,6.22-1.78,9.48c-0.43,3.26-1.27,6.48-1.8,9.86
			c-1.06,6.76-2.45,13.63-3.63,20.71c-1.38,7.07-2.62,14.32-4.07,21.53c-1.36,7.29-2.91,14.44-4.46,21.64
			c-1.58,7.13-3.24,14.26-5.13,21.01c-1.85,6.84-3.76,13.42-5.76,19.61c-2.06,6.21-4.09,12.03-6.28,17.39
			c-1.08,2.66-2.08,5.19-3.17,7.56c-1.08,2.45-2.16,4.72-3.2,6.83c-2.05,4.27-3.91,7.9-5.68,10.74
			C1398.69,1576.86,1396.42,1580.05,1396.42,1580.05z"/>
		<path class="st0" d="M1102.14,1340.99c0,0,0.16-1.78,0.47-5.17c0.18-1.72,0.45-3.83,0.91-6.31c0.2-1.21,0.32-2.62,0.67-4.01
			c0.28-1.4,0.62-2.91,1.01-4.47c1.49-6.3,3.74-13.96,7.53-22.29c3.72-8.4,8.8-17.54,15.44-26.78c6.73-9.21,15.12-18.46,24.91-27.18
			c9.89-8.69,21.19-16.86,33.7-23.77c12.51-7.07,26.12-12.99,40.47-17.59c7.22-2.21,14.53-4.22,22.03-5.76
			c3.7-0.7,7.48-1.45,11.29-2.05c1.88-0.28,3.79-0.59,5.66-0.79l2.91-0.34l1.42-0.21l0.71-0.09l1.19-0.12h0.34l5.37-0.23
			c1.95-0.02,4.16,0.02,6.26,0.02c2.18,0,4.09,0.2,6.08,0.29c1.95,0.11,3.93,0.26,5.88,0.48c7.88,0.74,15.5,2.28,22.87,4.08
			c3.77,0.89,7.4,1.93,10.99,3c3.59,1.18,7.17,2.34,10.61,3.72c6.99,2.55,13.67,5.62,20.09,8.84c12.78,6.59,24.49,14.24,34.55,22.64
			c10.17,8.46,18.8,17.57,25.63,26.79c6.89,9.22,11.93,18.59,15.33,27.25c3.43,8.63,5.12,16.58,5.97,23.08
			c0.32,3.22,0.64,6.11,0.55,8.65c0.03,2.53,0.09,4.67-0.11,6.38c-0.28,3.45-0.42,5.22-0.42,5.22s-0.44-1.75-1.23-5.08
			c-0.34-1.63-0.95-3.67-1.66-5.95c-0.66-2.34-1.71-4.89-2.82-7.77c-2.39-5.74-5.6-12.39-10.25-19.38
			c-4.67-6.97-10.64-14.28-18.04-21.31c-7.42-7.07-16.12-13.9-25.92-20.19c-9.78-6.35-20.81-11.96-32.45-16.86
			c-5.9-2.3-11.89-4.75-18.11-6.61c-6.21-1.84-12.53-3.55-18.92-4.86c-6.43-1.35-12.93-2.28-19.42-2.84
			c-1.6-0.2-3.26-0.34-4.83-0.38c-1.61-0.04-3.32-0.22-4.77-0.13c-1.48,0-2.88-0.07-4.51,0l-5.43,0.29l-4.2,0.46
			c-1.7,0.14-3.39,0.37-5.06,0.66c-3.28,0.45-6.63,1.08-9.93,1.64c-6.61,1.37-13.17,2.78-19.57,4.57
			c-6.44,1.81-12.76,3.8-18.91,6.04c-6.09,2.27-12.15,4.68-17.92,7.35c-11.55,5.33-22.29,11.42-31.94,18.01
			c-9.66,6.69-18.22,13.74-25.63,20.96c-7.34,7.22-13.45,14.53-18.49,21.44c-5.04,6.82-8.85,13.32-11.85,18.79
			c-1.45,2.8-2.76,5.23-3.75,7.43c-1.12,2.2-2.03,4.12-2.64,5.67C1102.84,1339.34,1102.14,1340.99,1102.14,1340.99z"/>
		<path class="st0" d="M1102.14,1340.99c0,0,0.16-1.78,0.47-5.17c0.18-1.72,0.45-3.83,0.91-6.31c0.2-1.21,0.32-2.62,0.67-4.01
			c0.28-1.4,0.62-2.91,1.01-4.47c1.49-6.3,3.74-13.96,7.53-22.29c3.72-8.4,8.8-17.54,15.44-26.78c6.73-9.21,15.12-18.46,24.91-27.18
			c9.89-8.69,21.19-16.86,33.7-23.77c12.51-7.07,26.12-12.99,40.47-17.59c7.22-2.21,14.53-4.22,22.03-5.76
			c3.7-0.7,7.48-1.45,11.29-2.05c1.88-0.28,3.79-0.59,5.66-0.79l2.91-0.34l1.42-0.21l0.71-0.09l1.19-0.12h0.34l5.37-0.23
			c1.95-0.02,4.16,0.02,6.26,0.02c2.18,0,4.09,0.2,6.08,0.29c1.95,0.11,3.93,0.26,5.88,0.48c7.88,0.74,15.5,2.28,22.87,4.08
			c3.77,0.89,7.4,1.93,10.99,3c3.59,1.18,7.17,2.34,10.61,3.72c6.99,2.55,13.67,5.62,20.09,8.84c12.78,6.59,24.49,14.24,34.55,22.64
			c10.17,8.46,18.8,17.57,25.63,26.79c6.89,9.22,11.93,18.59,15.33,27.25c3.43,8.63,5.12,16.58,5.97,23.08
			c0.32,3.22,0.64,6.11,0.55,8.65c0.03,2.53,0.09,4.67-0.11,6.38c-0.28,3.45-0.42,5.22-0.42,5.22s-0.44-1.75-1.23-5.08
			c-0.34-1.63-0.95-3.67-1.66-5.95c-0.66-2.34-1.71-4.89-2.82-7.77c-2.39-5.74-5.6-12.39-10.25-19.38
			c-4.67-6.97-10.64-14.28-18.04-21.31c-7.42-7.07-16.12-13.9-25.92-20.19c-9.78-6.35-20.81-11.96-32.45-16.86
			c-5.9-2.3-11.89-4.75-18.11-6.61c-6.21-1.84-12.53-3.55-18.92-4.86c-6.43-1.35-12.93-2.28-19.42-2.84
			c-1.6-0.2-3.26-0.34-4.83-0.38c-1.61-0.04-3.32-0.22-4.77-0.13c-1.48,0-2.88-0.07-4.51,0l-5.43,0.29l-4.2,0.46
			c-1.7,0.14-3.39,0.37-5.06,0.66c-3.28,0.45-6.63,1.08-9.93,1.64c-6.61,1.37-13.17,2.78-19.57,4.57
			c-6.44,1.81-12.76,3.8-18.91,6.04c-6.09,2.27-12.15,4.68-17.92,7.35c-11.55,5.33-22.29,11.42-31.94,18.01
			c-9.66,6.69-18.22,13.74-25.63,20.96c-7.34,7.22-13.45,14.53-18.49,21.44c-5.04,6.82-8.85,13.32-11.85,18.79
			c-1.45,2.8-2.76,5.23-3.75,7.43c-1.12,2.2-2.03,4.12-2.64,5.67C1102.84,1339.34,1102.14,1340.99,1102.14,1340.99z"/>
		<path class="st0" d="M1110.18,1355.74c0,0,0.88-1.39,2.56-3.61c0.78-1.17,2.02-2.31,3.45-3.66c1.47-1.48,3.19-2.79,5.16-4.14
			c1.95-1.47,4.27-2.64,6.71-4.03c2.41-1.13,5.11-2.31,7.94-3.2c2.79-0.97,5.82-1.76,8.88-2.37c3.02-0.62,6.19-0.9,9.35-1.16
			c3.14-0.08,6.31-0.18,9.45,0.14c3.08,0.12,6.16,0.69,9.05,1.27c2.88,0.67,5.66,1.45,8.23,2.39c2.55,0.99,4.92,1.95,7.07,3.17
			c1.03,0.55,2.03,1.16,2.98,1.69c0.92,0.64,1.82,1.2,2.58,1.78c1.56,1.21,2.91,2.21,3.89,3.29c1.98,2.04,2.97,3.26,2.97,3.26
			s-1.73,0.12-4.37,0.02c-1.33-0.05-2.98-0.02-4.81-0.02c-1.77-0.04-3.73-0.03-5.92,0c-2.11-0.06-4.42,0.1-6.78,0.1
			c-2.36,0.02-4.88,0.09-7.41,0.14c-1.34,0.13-2.62,0.13-3.94,0.13c-1.29,0-2.59,0.2-3.95,0.21c-2.66,0.03-5.37,0.27-8.07,0.34
			c-2.68,0.23-5.39,0.23-8.04,0.51c-1.36,0.14-2.66,0.16-4.01,0.26c-1.29,0.14-2.52,0.26-3.87,0.33c-2.52,0.24-5.01,0.4-7.38,0.62
			c-2.36,0.31-4.69,0.43-6.75,0.74c-2.16,0.22-4.16,0.42-5.84,0.67c-1.71,0.25-3.38,0.29-4.71,0.57
			C1111.86,1355.62,1110.18,1355.74,1110.18,1355.74z"/>
		<path class="st0" d="M1110.18,1355.74c0,0,0.88-1.39,2.56-3.61c0.78-1.17,2.02-2.31,3.45-3.66c1.47-1.48,3.19-2.79,5.16-4.14
			c1.95-1.47,4.27-2.64,6.71-4.03c2.41-1.13,5.11-2.31,7.94-3.2c2.79-0.97,5.82-1.76,8.88-2.37c3.02-0.62,6.19-0.9,9.35-1.16
			c3.14-0.08,6.31-0.18,9.45,0.14c3.08,0.12,6.16,0.69,9.05,1.27c2.88,0.67,5.66,1.45,8.23,2.39c2.55,0.99,4.92,1.95,7.07,3.17
			c1.03,0.55,2.03,1.16,2.98,1.69c0.92,0.64,1.82,1.2,2.58,1.78c1.56,1.21,2.91,2.21,3.89,3.29c1.98,2.04,2.97,3.26,2.97,3.26
			s-1.73,0.12-4.37,0.02c-1.33-0.05-2.98-0.02-4.81-0.02c-1.77-0.04-3.73-0.03-5.92,0c-2.11-0.06-4.42,0.1-6.78,0.1
			c-2.36,0.02-4.88,0.09-7.41,0.14c-1.34,0.13-2.62,0.13-3.94,0.13c-1.29,0-2.59,0.2-3.95,0.21c-2.66,0.03-5.37,0.27-8.07,0.34
			c-2.68,0.23-5.39,0.23-8.04,0.51c-1.36,0.14-2.66,0.16-4.01,0.26c-1.29,0.14-2.52,0.26-3.87,0.33c-2.52,0.24-5.01,0.4-7.38,0.62
			c-2.36,0.31-4.69,0.43-6.75,0.74c-2.16,0.22-4.16,0.42-5.84,0.67c-1.71,0.25-3.38,0.29-4.71,0.57
			C1111.86,1355.62,1110.18,1355.74,1110.18,1355.74z"/>
		<path class="st0" d="M1228.8,1355.74c0,0,1.1-1.39,3.28-3.58c2.19-2.14,5.5-4.93,9.83-7.82c4.27-2.85,9.55-5.76,15.6-8.1
			c1.5-0.63,2.98-1.16,4.63-1.65c1.58-0.56,3.2-1.08,4.86-1.45c3.35-0.87,6.77-1.57,10.25-2.05c3.53-0.35,7.11-0.65,10.6-0.5
			c3.57,0.02,7.08,0.4,10.46,1.09c3.36,0.62,6.59,1.65,9.55,2.9c2.96,1.23,5.66,2.76,7.92,4.33c1.11,0.84,2.15,1.69,3.12,2.52
			c0.89,0.92,1.75,1.71,2.48,2.54c1.5,1.73,2.6,3.29,3.38,4.72c0.82,1.28,1.21,2.53,1.61,3.27c0.3,0.74,0.41,1.18,0.41,1.18
			s-0.39-0.19-1.2-0.49c-0.76-0.29-1.79-0.81-3.17-1.26c-1.33-0.58-2.98-1.07-4.78-1.63c-1.87-0.5-3.88-0.96-6.11-1.36
			c-1.1-0.14-2.22-0.36-3.35-0.45c-1.19-0.17-2.4-0.21-3.63-0.33c-2.52-0.14-5.11-0.21-7.83-0.14c-1.37,0.07-2.74,0.1-4.17,0.14
			c-1.35,0.12-2.78,0.22-4.23,0.33c-2.88,0.21-5.83,0.56-8.78,0.9c-3.01,0.36-6.01,0.85-8.94,1.28c-3.04,0.43-6.01,0.9-8.87,1.36
			c-2.9,0.46-5.72,0.93-8.37,1.39c-2.78,0.34-5.34,0.74-7.73,1.09c-4.83,0.68-9.01,1.17-11.96,1.45c-1.49,0.14-2.79,0.19-3.57,0.26
			C1229.28,1355.74,1228.8,1355.74,1228.8,1355.74z"/>
		<path class="st0" d="M1228.8,1355.74c0,0,1.1-1.39,3.28-3.58c2.19-2.14,5.5-4.93,9.83-7.82c4.27-2.85,9.55-5.76,15.6-8.1
			c1.5-0.63,2.98-1.16,4.63-1.65c1.58-0.56,3.2-1.08,4.86-1.45c3.35-0.87,6.77-1.57,10.25-2.05c3.53-0.35,7.11-0.65,10.6-0.5
			c3.57,0.02,7.08,0.4,10.46,1.09c3.36,0.62,6.59,1.65,9.55,2.9c2.96,1.23,5.66,2.76,7.92,4.33c1.11,0.84,2.15,1.69,3.12,2.52
			c0.89,0.92,1.75,1.71,2.48,2.54c1.5,1.73,2.6,3.29,3.38,4.72c0.82,1.28,1.21,2.53,1.61,3.27c0.3,0.74,0.41,1.18,0.41,1.18
			s-0.39-0.19-1.2-0.49c-0.76-0.29-1.79-0.81-3.17-1.26c-1.33-0.58-2.98-1.07-4.78-1.63c-1.87-0.5-3.88-0.96-6.11-1.36
			c-1.1-0.14-2.22-0.36-3.35-0.45c-1.19-0.17-2.4-0.21-3.63-0.33c-2.52-0.14-5.11-0.21-7.83-0.14c-1.37,0.07-2.74,0.1-4.17,0.14
			c-1.35,0.12-2.78,0.22-4.23,0.33c-2.88,0.21-5.83,0.56-8.78,0.9c-3.01,0.36-6.01,0.85-8.94,1.28c-3.04,0.43-6.01,0.9-8.87,1.36
			c-2.9,0.46-5.72,0.93-8.37,1.39c-2.78,0.34-5.34,0.74-7.73,1.09c-4.83,0.68-9.01,1.17-11.96,1.45c-1.49,0.14-2.79,0.19-3.57,0.26
			C1229.28,1355.74,1228.8,1355.74,1228.8,1355.74z"/>
		<path class="st0" d="M1352.61,1360.88c0,0,0.1-0.44,0.34-1.11c0.3-0.74,0.57-1.79,1.36-3.08c0.73-1.4,1.65-2.8,2.95-4.43
			c1.26-1.6,2.83-3.31,4.72-4.94c1.9-1.69,4.08-3.31,6.5-4.79c2.47-1.47,5.13-2.8,7.99-3.98c1.45-0.61,2.94-1.14,4.42-1.63
			c1.52-0.47,3.06-0.92,4.61-1.29c3.11-0.73,6.35-1.36,9.68-1.6c3.22-0.29,6.53-0.32,9.78-0.12c1.65,0.08,3.28,0.26,4.83,0.5
			c1.6,0.24,3.15,0.55,4.66,0.85c3.1,0.73,6.01,1.65,8.67,2.88c2.71,1.13,5.13,2.55,7.25,4.04c2.07,1.53,3.88,3.11,5.31,4.73
			c0.63,0.82,1.29,1.56,1.75,2.34c0.51,0.75,0.98,1.4,1.27,2.13c0.7,1.28,1.08,2.45,1.24,3.19c0.24,0.72,0.32,1.16,0.32,1.16
			s-0.37-0.16-1.07-0.49c-0.35-0.17-0.79-0.41-1.26-0.58c-0.49-0.22-1.01-0.44-1.69-0.62c-0.57-0.24-1.29-0.46-2.05-0.7
			c-0.7-0.22-1.51-0.47-2.35-0.64c-1.66-0.44-3.55-0.74-5.57-1c-2.04-0.25-4.18-0.44-6.52-0.49c-2.27-0.18-4.74-0.1-7.26-0.16
			c-4.97,0.1-10.41,0.34-15.79,0.88c-5.39,0.43-10.79,1.05-15.87,1.87c-2.56,0.35-5.01,0.77-7.32,1.21
			c-2.37,0.45-4.6,0.86-6.66,1.36c-2.07,0.46-3.97,0.99-5.66,1.47c-1.71,0.55-3.25,0.97-4.47,1.45c-1.22,0.41-2.34,0.84-3.06,1.13
			C1352.97,1360.75,1352.61,1360.88,1352.61,1360.88z"/>
		<path class="st0" d="M1352.61,1360.88c0,0,0.1-0.44,0.34-1.11c0.3-0.74,0.57-1.79,1.36-3.08c0.73-1.4,1.65-2.8,2.95-4.43
			c1.26-1.6,2.83-3.31,4.72-4.94c1.9-1.69,4.08-3.31,6.5-4.79c2.47-1.47,5.13-2.8,7.99-3.98c1.45-0.61,2.94-1.14,4.42-1.63
			c1.52-0.47,3.06-0.92,4.61-1.29c3.11-0.73,6.35-1.36,9.68-1.6c3.22-0.29,6.53-0.32,9.78-0.12c1.65,0.08,3.28,0.26,4.83,0.5
			c1.6,0.24,3.15,0.55,4.66,0.85c3.1,0.73,6.01,1.65,8.67,2.88c2.71,1.13,5.13,2.55,7.25,4.04c2.07,1.53,3.88,3.11,5.31,4.73
			c0.63,0.82,1.29,1.56,1.75,2.34c0.51,0.75,0.98,1.4,1.27,2.13c0.7,1.28,1.08,2.45,1.24,3.19c0.24,0.72,0.32,1.16,0.32,1.16
			s-0.37-0.16-1.07-0.49c-0.35-0.17-0.79-0.41-1.26-0.58c-0.49-0.22-1.01-0.44-1.69-0.62c-0.57-0.24-1.29-0.46-2.05-0.7
			c-0.7-0.22-1.51-0.47-2.35-0.64c-1.66-0.44-3.55-0.74-5.57-1c-2.04-0.25-4.18-0.44-6.52-0.49c-2.27-0.18-4.74-0.1-7.26-0.16
			c-4.97,0.1-10.41,0.34-15.79,0.88c-5.39,0.43-10.79,1.05-15.87,1.87c-2.56,0.35-5.01,0.77-7.32,1.21
			c-2.37,0.45-4.6,0.86-6.66,1.36c-2.07,0.46-3.97,0.99-5.66,1.47c-1.71,0.55-3.25,0.97-4.47,1.45c-1.22,0.41-2.34,0.84-3.06,1.13
			C1352.97,1360.75,1352.61,1360.88,1352.61,1360.88z"/>
		<path class="st0" d="M1215.94,1386.66c0,0,0.69,2.73,1.58,7.54c0.46,2.41,1.03,5.29,1.67,8.51c0.36,1.6,0.63,3.31,0.97,5.14
			c0.38,1.82,0.75,3.73,1.18,5.73c1.48,7.88,3.3,17.12,5.15,27.01c0.57,2.49,0.99,5.02,1.41,7.55c0.51,2.6,1.01,5.11,1.46,7.78
			c0.92,5.21,1.84,10.54,2.67,15.9c0.78,5.33,1.66,10.71,2.28,16.05c0.37,2.64,0.66,5.25,0.93,7.87c0.25,2.68,0.59,5.26,0.79,7.78
			c0.39,5.2,0.75,10.11,0.84,14.91c0.1,2.3,0.17,4.65,0.17,6.87c0,2.22,0,4.39-0.07,6.52c-0.1,4.11-0.36,7.93-0.63,11.32
			c-0.26,3.33-0.62,6.28-0.99,8.71c-0.74,4.83-1.4,7.62-1.4,7.62s-0.87-2.75-2.2-7.39c-0.67-2.31-1.43-5.15-2.29-8.38
			c-0.83-3.16-1.81-6.87-2.81-10.77c-0.97-3.98-1.99-8.28-3.12-12.77c-1.05-4.53-2.19-9.27-3.22-14.26
			c-1.13-4.94-2.17-10.05-3.12-15.32c-1.06-5.25-1.95-10.65-2.86-15.99c-0.75-5.42-1.58-10.8-2.17-16.19
			c-0.62-5.4-1.06-10.73-1.32-15.86c-0.3-5.17-0.44-10.19-0.43-14.93c0.06-4.79,0.18-9.32,0.62-13.5c0.15-2.12,0.35-4.07,0.51-6
			c0.3-1.83,0.52-3.66,0.78-5.36c0.51-3.42,1.02-6.3,1.66-8.62C1215.09,1389.39,1215.94,1386.66,1215.94,1386.66z"/>
		<path class="st0" d="M1215.94,1386.66c0,0,0.69,2.73,1.58,7.54c0.46,2.41,1.03,5.29,1.67,8.51c0.36,1.6,0.63,3.31,0.97,5.14
			c0.38,1.82,0.75,3.73,1.18,5.73c1.48,7.88,3.3,17.12,5.15,27.01c0.57,2.49,0.99,5.02,1.41,7.55c0.51,2.6,1.01,5.11,1.46,7.78
			c0.92,5.21,1.84,10.54,2.67,15.9c0.78,5.33,1.66,10.71,2.28,16.05c0.37,2.64,0.66,5.25,0.93,7.87c0.25,2.68,0.59,5.26,0.79,7.78
			c0.39,5.2,0.75,10.11,0.84,14.91c0.1,2.3,0.17,4.65,0.17,6.87c0,2.22,0,4.39-0.07,6.52c-0.1,4.11-0.36,7.93-0.63,11.32
			c-0.26,3.33-0.62,6.28-0.99,8.71c-0.74,4.83-1.4,7.62-1.4,7.62s-0.87-2.75-2.2-7.39c-0.67-2.31-1.43-5.15-2.29-8.38
			c-0.83-3.16-1.81-6.87-2.81-10.77c-0.97-3.98-1.99-8.28-3.12-12.77c-1.05-4.53-2.19-9.27-3.22-14.26
			c-1.13-4.94-2.17-10.05-3.12-15.32c-1.06-5.25-1.95-10.65-2.86-15.99c-0.75-5.42-1.58-10.8-2.17-16.19
			c-0.62-5.4-1.06-10.73-1.32-15.86c-0.3-5.17-0.44-10.19-0.43-14.93c0.06-4.79,0.18-9.32,0.62-13.5c0.15-2.12,0.35-4.07,0.51-6
			c0.3-1.83,0.52-3.66,0.78-5.36c0.51-3.42,1.02-6.3,1.66-8.62C1215.09,1389.39,1215.94,1386.66,1215.94,1386.66z"/>
		<path class="st0" d="M1334.54,1378.92c0,0,0.68,2.85,1.48,7.76c0.43,2.45,0.86,5.48,1.32,8.9c0.26,1.73,0.45,3.53,0.65,5.46
			c0.16,1.94,0.16,4,0.2,6.12c0.14,4.31,0.15,8.98,0.11,13.98c0.05,2.52-0.2,5.02-0.43,7.54c-0.14,2.59-0.42,5.15-0.66,7.82
			c-0.49,5.3-1.05,10.84-2,16.28c-0.91,5.49-1.89,11.07-2.94,16.55c-1.19,5.5-2.34,11-3.66,16.34c-1.21,5.41-2.61,10.59-3.93,15.63
			c-1.35,5.1-2.83,9.94-4.08,14.54c-1.34,4.6-2.65,8.91-3.9,12.93c-1.39,4.04-2.44,7.7-3.51,10.96c-1.04,3.28-2.01,6.1-2.86,8.47
			c-1.74,4.66-2.89,7.38-2.89,7.38s-0.36-2.84-0.69-7.85c-0.17-2.52-0.26-5.55-0.39-9.03c-0.08-3.45-0.14-7.43,0.13-11.66
			c0.2-4.23,0.48-8.83,0.84-13.7c0.38-4.9,1-9.9,1.73-15.15c0.37-2.63,0.75-5.22,1.18-7.92c0.42-2.72,0.85-5.42,1.37-8.1
			c0.93-5.45,2-10.9,3.12-16.34c1.09-5.48,2.17-10.86,3.41-16.2c0.54-2.71,1.24-5.32,1.76-7.89c0.55-2.64,1.06-5.2,1.67-7.7
			c1.08-5.08,2.49-9.96,3.4-14.53c0.98-4.57,1.98-8.88,2.94-12.95c0.5-2.06,0.99-4,1.49-5.84c0.39-1.88,0.7-3.68,1.11-5.38
			c0.64-3.38,1.34-6.36,1.97-8.76C1333.69,1381.74,1334.54,1378.92,1334.54,1378.92z"/>
		<path class="st0" d="M1334.54,1378.92c0,0,0.68,2.85,1.48,7.76c0.43,2.45,0.86,5.48,1.32,8.9c0.26,1.73,0.45,3.53,0.65,5.46
			c0.16,1.94,0.16,4,0.2,6.12c0.14,4.31,0.15,8.98,0.11,13.98c0.05,2.52-0.2,5.02-0.43,7.54c-0.14,2.59-0.42,5.15-0.66,7.82
			c-0.49,5.3-1.05,10.84-2,16.28c-0.91,5.49-1.89,11.07-2.94,16.55c-1.19,5.5-2.34,11-3.66,16.34c-1.21,5.41-2.61,10.59-3.93,15.63
			c-1.35,5.1-2.83,9.94-4.08,14.54c-1.34,4.6-2.65,8.91-3.9,12.93c-1.39,4.04-2.44,7.7-3.51,10.96c-1.04,3.28-2.01,6.1-2.86,8.47
			c-1.74,4.66-2.89,7.38-2.89,7.38s-0.36-2.84-0.69-7.85c-0.17-2.52-0.26-5.55-0.39-9.03c-0.08-3.45-0.14-7.43,0.13-11.66
			c0.2-4.23,0.48-8.83,0.84-13.7c0.38-4.9,1-9.9,1.73-15.15c0.37-2.63,0.75-5.22,1.18-7.92c0.42-2.72,0.85-5.42,1.37-8.1
			c0.93-5.45,2-10.9,3.12-16.34c1.09-5.48,2.17-10.86,3.41-16.2c0.54-2.71,1.24-5.32,1.76-7.89c0.55-2.64,1.06-5.2,1.67-7.7
			c1.08-5.08,2.49-9.96,3.4-14.53c0.98-4.57,1.98-8.88,2.94-12.95c0.5-2.06,0.99-4,1.49-5.84c0.39-1.88,0.7-3.68,1.11-5.38
			c0.64-3.38,1.34-6.36,1.97-8.76C1333.69,1381.74,1334.54,1378.92,1334.54,1378.92z"/>
	</g>
</g>
</svg>
