<svg version="1.2" xmlns="http://www.w3.org/2000/svg" viewBox="0 0 2000 1990" width="2000" height="1990">
	<title>rounded-brown-svg</title>
	<style>
		.s0 { fill: #ffffff } 
	</style>
	<path id="Layer" fill-rule="evenodd" class="s0" d="m994.7 1989.4c-87.9 0-175.8-11.4-260.3-34.4-47.4-12.5-97.1-30.3-147.6-52.9-50.3-22.7-97.2-48.5-139.2-76.6-91.5-60.5-171-134-236.5-218.3-34-43.5-64.3-89.5-90-136.6-26.1-48.2-48.5-99-66.5-150.8-35.6-101.2-54-210.6-54.6-325.2 0.7-114.6 19-224 54.7-325.2 17.9-51.8 40.3-102.5 66.5-150.8 25.7-47 55.9-93 90.1-136.6 65.5-84.3 145-157.7 236.4-218.2 42.2-28.2 89-53.9 139.3-76.5 50.6-22.7 100.2-40.5 147.6-52.9 192.1-52.2 401-44.8 588.3 20.9 48 16.9 90.2 35.1 129.1 55.6 15.5 7.6 30.6 16.4 45.1 24.9 4.9 2.9 9.8 5.8 14.8 8.6l33.4 21.4c3.2 2 6.4 4.1 9.4 6.3l19.3 13.6c6.6 4.7 13.1 9.3 19.4 14.1l26 20.4c52.8 42.3 101.2 90.5 147.8 147.2 14.8 18.7 27.7 35 35.5 46.6l11.9 16.8c1.3 1.7 0.9 4.2-0.8 5.4-1.8 1.2-4.3 0.8-5.5-0.9l-11.9-16.9c-7.8-11.4-20.6-27.6-35.3-46.1-46.2-56.3-94.2-104-146.6-146l-25.9-20.3c-6.2-4.7-12.6-9.3-19.1-13.9l-19.3-13.7c-3-2.1-6-4-9-6q-2.5-1.5-4.9-3.2l-28.5-18.2c-4.7-2.7-9.7-5.6-14.7-8.5-14.4-8.4-29.3-17.1-44.6-24.6-38.7-20.5-80.6-38.5-128.2-55.3-185.8-65.2-393.1-72.5-583.7-20.8-47 12.4-96.2 30.1-146.5 52.6-49.7 22.4-96.2 47.9-138.1 75.9-90.6 60-169.6 132.8-234.6 216.5-33.8 43.3-63.9 88.9-89.4 135.5-26 47.9-48.1 98.2-66 149.7-35.3 100.4-53.6 208.9-54.3 322.6 0.7 113.7 18.9 222.2 54.2 322.6 17.9 51.5 40.1 101.8 66 149.6 25.5 46.8 55.6 92.4 89.3 135.6 65 83.7 143.9 156.5 234.7 216.6 41.8 27.9 88.2 53.5 138.1 76 50.1 22.4 99.3 40.1 146.4 52.5 190.6 51.8 397.9 44.4 583.7-20.6 47.5-16.7 89.4-34.8 128.1-55.2 15.5-7.6 30.5-16.3 45-24.8 4.9-2.9 9.8-5.7 14.6-8.5l33.2-21.2c3.1-2 6.1-3.9 9-6l19.4-13.8c6.6-4.6 13-9.2 19.2-13.9l25.9-20.3c52.4-41.9 100.3-89.7 146.6-146 14.7-18.5 27.5-34.8 35.2-46.1l12-16.9c1.2-1.7 3.6-2.2 5.4-0.9 1.8 1.2 2.2 3.6 0.9 5.4l-11.9 16.9c-7.8 11.4-20.7 27.8-35.5 46.5-46.7 56.7-95.1 104.9-147.9 147.2l-25.9 20.3c-6.4 4.9-12.9 9.5-19.5 14.2l-19.4 13.7c-3 2.2-6.2 4.2-9.3 6.3l-33.3 21.3c-5.1 2.8-9.9 5.7-14.8 8.5-14.6 8.5-29.7 17.3-45.4 25-38.9 20.5-81.1 38.8-129 55.6-104.8 36.7-216.4 55.2-328 55.2zm-0.8-72q-1.2 0-2.5 0c-5.8-0.2-11.5-0.3-17.1-0.4-15-0.3-30.4-0.6-45.8-2.1-35.8-2.1-75.4-7.6-124.1-17.2-41.8-9-82.4-20.5-121.1-34.3-47.3-17.7-82.9-33.3-115.2-50.6-149.3-77.9-274.6-195.4-362.3-339.5-86.1-141.5-133.5-311.4-133.6-478.6 0-167.2 47.5-337.1 133.6-478.6 87.7-144.1 213-261.5 362.4-339.5 32.2-17.3 67.8-32.9 115-50.5 38.8-13.9 79.4-25.4 121.1-34.3 48.8-9.7 88.4-15.1 124.6-17.3 15-1.4 30.4-1.7 45.4-2.1 5.6-0.1 11.3-0.2 16.9-0.4 7.2-0.1 14.2 0.1 21.1 0.3l14 0.4c9.2 0.2 18.7 0.4 28.1 1.3 164.8 9.7 331.3 68 468.7 164.2 117.1 81.4 215.3 191.6 284.2 318.4 13.6 25.4 26.1 51.5 37.3 78q0.4-0.1 0.9-0.1c18.3-2.1 36.7-1.3 54.8 2.4 9.6 2 19.3 4.9 28.9 8.5 9.7 3.9 19.2 8.6 29.1 14.5l2.6 1.5c3.9-4 9.1-6.6 14.8-7 13-0.8 24 10.7 24.3 25.8 0.4 15-9.8 27.1-22.7 27-13-0.1-23.7-11.5-24.1-25.7q0-3.2 0.6-6.2l-3.5-2.1c-9.1-5.4-17.9-9.8-26.7-13.3-8.8-3.3-17.7-5.9-26.5-7.7-15.3-3.2-30.9-4.1-46.3-2.6 14.1 34.9 26.1 70.7 35.8 107.1 16 58.8 25.9 121.3 29.5 186.2 9.4 3.1 16.4 12.8 16.7 24.8 0.4 14.9-9.8 26.9-22.6 27 12.8 0.1 23 12.1 22.6 27-0.3 12-7.3 21.8-16.7 24.8-3.6 65-13.5 127.5-29.5 186.3-9.7 36.3-21.7 72.1-35.8 107.1 15.4 1.4 31 0.5 46.3-2.6 8.9-1.9 17.8-4.5 26.6-7.8 8.4-3.4 16.8-7.6 25.7-12.7q-0.9-3.2-1-6.6c-0.2-14.2 9.7-26.3 22.4-27.1 13.1-0.8 24.1 10.7 24.4 25.7 0.4 15-9.9 27.1-22.7 27.1-5.7 0-10.9-2.2-15-5.9-9.7 5.7-18.9 10.3-28.2 13.9-9.6 3.7-19.3 6.6-29 8.6-18.1 3.8-36.6 4.6-54.8 2.4q-0.5 0-0.9-0.1c-11.2 26.6-23.7 52.6-37.3 78-68.9 126.8-167.2 237-284.2 318.5-137.4 96.1-303.9 154.4-469 164.1-9.2 0.9-18.7 1.1-27.8 1.3l-14 0.4c-6.1 0.2-12.3 0.3-18.4 0.3zm892.1-948.4c-0.2-11.1 5.8-20.9 14.5-25.1-3.5-63.8-13.2-125.4-28.9-183.2-10-37-22.2-73.3-36.7-108.9-25 4.9-50.5 15.7-77.6 32.8-4.2 2.8-8.5 5.6-12.8 8.6-0.4 39.4-8.6 76.3-24.3 107.9-4.8 10.4-11.2 21.1-18.8 31.8-7.8 10.7-15.8 20.2-24.5 28.9-19.7 19-41.7 34.3-67.4 46.8-26.9 12.8-49 19.2-64.1 19.3-8.2-0.2-14.2-2.6-17.8-7.2-3.3-4.3-4.2-10.1-2.6-17.1 2.4-10.3 11.2-22.9 25.5-41.3 5.5-7 12-14.5 18.9-22.4l4-4.5c8.1-9.4 17.4-19.7 27.7-30.7 17.4-18.8 40.8-43.6 67.2-68.4 21.8-20.7 41.5-37.3 60.6-51.1-0.1-6.7-0.5-13-1-18.7-2.4-33.1-11.2-66.9-26.9-103.4-4.8-10.1-9.9-20-15.1-29.3-1.8-3.4-3.4-5.8-4.4-7.4l-11.9-16.8c-6.1-9.2-16.2-21.8-28.9-37.9l-0.8-1c-24.9-30.4-65-76.2-123.5-123l-21.9-17.2c-4.7-3.5-9.7-7.1-14.7-10.6q-4.2-3-8.6-6.1l-9-6.5c-2.4-1.7-4.8-3.2-7.2-4.8-1.5-0.9-3-1.9-4.5-2.8l-24-15.4c-4.4-2.5-9.3-5.3-14.1-8.2-11.5-6.7-23.5-13.7-35.7-19.6-32.1-17-67.3-32.2-107.9-46.5-156.3-54.9-330.8-61.1-491.4-17.4-39.6 10.3-79.9 24.7-123.2 44.1-42.2 19-81.3 40.5-116.2 63.9-76.6 50.7-143.1 112.1-197.7 182.4-112.3 141.5-176.6 328-176.4 511.6-0.2 183.6 64 370 176.3 511.5 54.6 70.4 121 131.8 197.7 182.6 34.8 23.3 73.9 44.8 116.2 63.9 43.1 19.3 83.4 33.7 123 44.1 160.7 43.8 335.2 37.6 491.6-17.3 40.4-14.2 75.6-29.4 107.6-46.4 12.4-6 24.3-12.9 35.8-19.6 4.9-2.8 9.8-5.7 14.7-8.5l27.9-17.9c2.5-1.6 4.9-3.1 7.3-4.8l17.7-12.7c5.1-3.5 10.1-7.1 14.9-10.8l21.9-17.1c58.3-46.6 98.4-92.5 123.5-123l1.4-1.7c12.3-15.7 22.1-28.1 28.1-37l12-17c1-1.5 2.6-3.9 4.3-7.1 3.7-6.5 9.1-16.8 15.4-29.8 15.5-36.3 24.3-70 26.8-103 0.4-5.8 0.8-12.1 0.9-18.7-19.1-13.9-38.8-30.5-60.6-51.2-26.4-24.9-49.8-49.6-67.2-68.4-10.3-11-19.6-21.3-27.7-30.7l-3.9-4.4c-6.9-8-13.5-15.5-18.9-22.4-14.4-18.5-23.2-31.2-25.6-41.4-1.6-7-0.7-12.9 2.6-17.1 3.6-4.6 9.6-7 17.8-7.2 14.9-0.1 37.2 6.5 64 19.2 25.8 12.5 47.8 27.8 67.5 46.8 8.8 8.9 16.8 18.3 24.5 29 7.7 10.7 14 21.4 18.9 32 15.6 31.4 23.9 68.3 24.2 107.7 4.3 3 8.6 5.8 12.8 8.6 27.1 17.1 52.6 27.9 77.6 32.8 14.5-35.5 26.7-71.9 36.7-108.9 15.7-57.8 25.4-119.3 28.9-183.2-8.7-4.2-14.7-14-14.5-25.1 0.4-14.1 11.1-25.7 24-25.7-12.9-0.1-23.6-11.6-24-25.7zm-92.4-405c-67.7-124.7-164.3-233-279.4-313.1-135.1-94.5-298.8-151.8-461-161.4-9.2-0.8-18.4-1.1-27.3-1.3l-14-0.3c-6.8-0.2-13.6-0.4-20.4-0.4-5.5 0.3-11.2 0.4-16.9 0.5-14.7 0.3-29.9 0.6-44.6 2.1-35.7 2-74.6 7.5-122.6 16.9-40.8 8.8-80.9 20.2-118.9 33.7-46.5 17.3-81.3 32.7-113 49.7-147 76.7-270.2 192.1-356.4 333.9-84.6 138.9-131.3 306-131.4 470.4 0.1 164.4 46.8 331.5 131.4 470.5 86.2 141.7 209.4 257.2 356.3 333.9 31.8 17 66.7 32.4 113.3 49.7 37.9 13.5 77.9 24.8 118.8 33.7 47.9 9.4 86.8 14.8 122.2 16.9 15 1.4 30.2 1.7 44.9 2.1 5.7 0.1 11.4 0.2 17.1 0.4 6.6 0 13.4-0.2 20.2-0.4l14-0.3c8.9-0.2 18.1-0.4 27.1-1.2 162.4-9.6 326.1-66.9 461.1-161.5 115.2-80.1 211.8-188.4 279.5-313.2 12.8-23.8 24.5-48.2 35.2-73.1-25.9-5.5-52.2-16.8-79.8-34.3q-2.5-1.5-4.9-3.2c-0.2 3.2-0.4 6.3-0.6 9.5-2.6 34.6-11.8 70-28.2 108.2q-7.8 16.6-15.8 30.8c-2 3.8-3.9 6.6-5.1 8.5l-12.1 17.1c-6.2 9.2-16.1 21.8-28.7 37.8l-1.5 1.8c-25.6 31.1-66.5 77.8-125.9 125.4l-22.1 17.3c-5 3.8-10.1 7.5-15.4 11.1l-17.6 12.6c-2.5 1.9-5.3 3.6-8.1 5.4l-28.2 18c-5.2 3-10 5.8-14.9 8.6-11.7 6.9-23.8 14-36.5 20.1-32.5 17.2-68.4 32.7-109.5 47.2-89.2 31.3-184.1 47.1-279.1 47.1-74.8 0-149.6-9.8-221.7-29.4-40.4-10.6-81.4-25.3-125.4-45-43-19.4-82.9-41.3-118.5-65.2-77.9-51.6-145.7-114.2-201.3-185.8-114.3-144.2-179.8-334.1-179.5-521.2-0.2-187 65.3-377 179.7-521.1 55.6-71.7 123.3-134.2 201.3-185.9 35.6-23.8 75.5-45.7 118.5-65.1 44.1-19.7 85.1-34.4 125.4-45 163.6-44.5 341.5-38.1 500.7 17.8 41.3 14.6 77.2 30.1 109.8 47.4 12.5 6 24.7 13.2 36.5 20.1q7.1 4.2 14.3 8.2l24.4 15.7q2.3 1.4 4.3 2.7c2.7 1.7 5.4 3.4 8.1 5.4l9 6.4c2.8 2 5.6 4 8.4 6 5.2 3.7 10.3 7.3 15.3 11.1l22 17.3c44.8 35.8 85.9 76.8 125.9 125.3l0.9 1.2c12.9 16.3 23.1 29.2 29.5 38.7l12 16.9c1.2 1.9 3.1 4.7 5.1 8.6 5.4 9.5 10.7 19.8 15.7 30.4 16.5 38.4 25.7 73.9 28.3 108.6 0.2 3.2 0.4 6.3 0.6 9.4q2.4-1.6 4.9-3.2c27.6-17.5 53.9-28.8 79.8-34.3-10.6-24.9-22.4-49.3-35.2-73.2zm116.4 430.7q0.1 0 0.2 0-0.1 0-0.2 0zm-363.8 82.4q-0.3 0-0.5 0c-4.6 0.1-5.8 1.2-5.8 1.2-0.1 0.2-0.4 1.4 0.2 4.1 1.9 7.7 12 21.4 22.6 35.2 5.2 6.6 11.7 13.9 18.5 21.8l3.9 4.4c8 9.3 17.2 19.5 27.4 30.3 17.2 18.6 40.3 43.1 66.5 67.7 17.7 16.8 34 30.9 49.6 42.8-1.5-27.4-7.3-59-22.3-89.4q-6.9-14.7-17.6-29.5c-7.2-10-14.6-18.9-22.8-27-18.3-17.8-39-32.2-63.3-43.9-31.9-15.3-49-17.7-56.4-17.7zm-6.3-165.9c0 0 1.2 1 5.8 1.1 7.3 0.3 24.3-2.1 57-17.7 24.2-11.7 44.9-26.1 63.3-43.9 8.1-8 15.5-16.9 22.7-26.9 7.1-9.8 13-19.7 17.5-29.4 15.1-30.4 21-62.1 22.4-89.6-15.6 12-31.9 26.1-49.6 42.8-26.1 24.6-49.2 49.1-66.5 67.7-10.2 10.9-19.4 21.1-27.4 30.3l-3.9 4.6c-6.8 7.7-13.3 15.1-18.5 21.7-10.6 13.7-20.8 27.4-22.6 35.2-0.6 2.6-0.3 3.9-0.2 4.1zm-441.2-489.8q-22.5 37.4-72.1 63.5c-33.1 17.3-64.9 26.1-95.4 26.1-30.1 0-72.4-8.8-126.9-26.5-54.2-17.5-89.2-26.4-105.1-26.4-29.6 0-55.1 11.4-76.4 34.2-21.2 22.8-31.9 50.2-31.9 82.5q0 47.1 29.4 77c19.6 20 43.8 35.7 72.8 47.1 29 11.4 74.2 25.6 135.7 42.8 61.4 16.7 110.8 33.2 148.2 49.3q56.1 24.1 95 72.1c26 32 39 74 39 126 0 77.8-31.9 147-95.7 207.5q-95.7 90.9-236.9 90.9c-85.8 0-157.1-22.6-213.5-67.7-56.6-45.1-84.8-98.8-84.8-161.1 0-46 16.6-84.3 49.6-115 33.1-30.8 75.8-46.1 128.3-46.1 55 0 101.5 15.2 139.5 45.4 38 30.3 57.1 66.3 57.1 108 0 28.3-9.8 51.6-29.4 69.9-19.5 18.3-43 27.3-70.6 27.3-45.5 0-79.4-21-101.8-63l16.2-9.1c16.3 16.8 34.3 25.1 54.1 25.1q31.5 0 52.5-22.2 20.9-22.2 20.9-55.7 0.1-41.9-35.1-70-35.1-28-84.7-28-58 0-96.4 42.6c-25.6 28.3-38.3 62.2-38.3 101.8 0 51.9 22.9 96.6 68.6 134 45.8 37.4 103.4 56.1 173 56.1 74.4 0 136.2-23.3 185.7-70 49.3-46.7 74.1-101.4 74.1-164.1 0-43.1-11.5-77.9-34.4-104.4q-34.5-40.1-82.5-60.1-48-19.9-133.8-44.3c-57.1-16.2-101.7-31-133.8-44.3-31.9-13.3-58.8-32.7-80.5-58-21.7-25.4-32.5-58.4-32.5-99.3 0-55.8 22.1-103.8 66.4-144q66.3-60.2 153.9-60.2 40.7 0 116 21.2 76.1 20.7 109.6 20.7c36.5 0 68.3-14.4 95.4-43.2zm-19.5 926.6c0 0 0.4 0.2 1.2 0.8 0.7 0.4 1.9 1.1 3.2 2.3 2.8 2.3 6.5 6.2 10.4 11.6 3.9 5.5 8 12.5 12.1 20.8 4.1 8.3 8.3 17.8 12.4 28.2 4.1 10.5 8.3 21.9 12.5 33.8 2.2 5.9 4.3 12 6.7 18.1 1.2 2.9 2.4 5.9 3.6 8.7l1 2.1 1.2 3.3 0.9 2.4 1 2.7c2.4 7.2 4.3 14.3 6 21.5 1.8 7.2 3.2 14.4 4.7 21.3 2.9 13.9 6.3 27 12.6 34.7 1.6 1.9 3.3 3.6 5.3 5.1 2.1 1.4 4.2 2.8 6.7 3.8 1.2 0.7 2.6 1.1 3.9 1.5 1.4 0.5 2.8 1 4.2 1.4 1.5 0.3 2.9 0.7 4.5 1l2.3 0.4 1.1 0.2c-0.3 0 0 0 0 0q0 0 0 0h0.2l0.7 0.1c7.2 0.8 14.4 1.6 21.4 2.5 6.9 0.7 13.6 1 20.3 1.6 6.6 0.7 13.5 0.7 20 1.1 3.3 0.2 6.5 0.4 9.8 0.5 3.2 0.1 6.3 0.2 9.5 0.2 12.6 0.6 24.6 0.8 35.7 1.2 11.1 0.3 21.3 0.6 30.3 1 9.1 0.5 17 0.9 23.5 1.4 6.5 0.5 11.7 1.1 15.1 1.3 3.6 0.4 5.4 0.6 5.4 0.6 0 0-1.8 0.4-5.3 1.1-3.4 0.7-8.4 1.7-14.9 2.8-12.8 2.4-31.1 5.5-53.2 8.6-11.2 1.4-23.1 2.9-36 4q-9.7 0.9-19.8 1.4-5.1 0.2-10.3 0.4c-3.5 0.2-7 0.3-10.6 0.3-7.2 0-14.6-0.1-22-0.3-7.1-0.5-14.4-1-21.6-1.5l-0.7-0.1-0.8-0.1h-0.4l-1.6-0.3-3-0.4c-2.1-0.3-4.3-0.8-6.3-1.2-2.2-0.5-4.3-1.2-6.5-1.8-2-0.7-4.2-1.4-6.3-2.4-4.4-1.7-8.5-4.2-12.5-7-4-3-7.6-6.5-10.7-10.2-3.1-3.9-5.5-8-7.6-12.1-2-4.1-3.5-8.2-4.8-12.3-2.6-8.1-4-15.8-5.3-23.1q-1.8-10.7-3.5-21.2c-1.2-6.7-2.6-13.4-4.1-19.4l-0.6-2.3-0.7-2.4-0.4-1.3-0.2-0.6v-0.2c0.1 0.3-0.3-0.6 0.1 0.2l-0.9-2.5c-1.2-3.5-2.2-6.9-3.2-10.3-1.7-6.7-3.4-13.1-4.8-19.3-2.8-12.6-5.3-24.3-7.6-35.1-2.4-10.8-4.6-20.6-6.8-29.2-2.3-8.6-4.6-16-6.8-21.9-2.3-6-4.6-10.4-6.5-13.3q-0.7-1-1.2-1.8c-0.5-0.6-0.8-1-1.1-1.4q-0.9-1-0.9-1zm117.7 225.7q0.1 0 0.1 0zm0 0q0 0-0.1 0zm-77.9-89.9l0.1 0.2 0.1 0.3q-0.1-0.3-0.2-0.5zm277.4 96.3c0 0-0.2-4 0.1-10.7 0.2-3.4 0.3-7.4 0.5-12 0.2-4.5 0.5-9.6 0.8-15.2 0.4-5.6 0.7-11.6 1.3-17.9 0.5-6.4 1-13.1 1.8-20 1.4-13.9 3.5-28.7 6.3-43.5 1.5-7.5 3-14.8 5-22.1 1.8-7.3 4-14.4 6.3-21.2 1.2-3.4 2.4-6.8 3.8-10 1.2-3.2 2.3-6.4 3.9-9.4 1.3-3.1 2.7-5.9 4.1-8.8 1.3-2.8 2.9-5.5 4.4-8 1.4-2.5 2.8-4.9 4.2-7.2 1.5-2.2 2.9-4.2 4.4-6.1 1.3-2 2.6-3.8 3.9-5.4 1.2-1.6 2.5-3 3.6-4.3 4.6-5.1 7.5-7.7 7.5-7.7 0 0-0.7 4-2.3 10.4-0.3 1.6-0.9 3.3-1.2 5.3-0.4 2-0.8 4.1-1.3 6.3-0.5 2.2-1.1 4.5-1.6 7-0.4 2.5-1 5.1-1.5 7.8-1.2 5.3-2.1 11.2-3.3 17.3-0.7 3.1-1.3 6.2-1.8 9.5-0.5 3.3-1.3 6.5-1.8 9.9-1.1 6.7-2.5 13.6-3.7 20.7-1.3 7-2.6 14.3-4 21.5-1.4 7.3-2.9 14.4-4.5 21.6-1.6 7.2-3.2 14.3-5.1 21-1.9 6.9-3.8 13.5-5.8 19.7-2 6.2-4.1 12-6.3 17.3-1 2.7-2 5.2-3.1 7.6q-1.7 3.7-3.2 6.8c-2.1 4.3-3.9 7.9-5.7 10.8-3.5 5.8-5.7 9-5.7 9zm-294.3-239.1c0 0 0.2-1.8 0.5-5.2 0.1-1.7 0.4-3.8 0.9-6.3 0.2-1.2 0.3-2.6 0.6-4q0.5-2.1 1.1-4.5c1.4-6.3 3.7-13.9 7.5-22.3 3.7-8.4 8.8-17.5 15.4-26.7 6.8-9.2 15.1-18.5 24.9-27.2 9.9-8.7 21.2-16.9 33.7-23.8 12.5-7.1 26.2-13 40.5-17.6 7.2-2.2 14.5-4.2 22-5.7 3.7-0.7 7.5-1.5 11.3-2.1 1.9-0.3 3.8-0.6 5.7-0.8l2.9-0.3 1.4-0.2 0.7-0.1 1.2-0.1h0.4l5.3-0.3c2 0 4.2 0.1 6.3 0.1 2.2 0 4.1 0.2 6.1 0.2 1.9 0.2 3.9 0.3 5.8 0.5 7.9 0.8 15.5 2.3 22.9 4.1 3.8 0.9 7.4 1.9 11 3 3.6 1.2 7.2 2.3 10.6 3.7 7 2.6 13.7 5.6 20.1 8.9 12.8 6.6 24.5 14.2 34.6 22.6 10.1 8.5 18.8 17.6 25.6 26.8 6.9 9.2 11.9 18.6 15.3 27.2 3.4 8.7 5.1 16.6 6 23.1 0.3 3.2 0.6 6.1 0.5 8.7 0.1 2.5 0.1 4.6-0.1 6.4-0.3 3.4-0.4 5.2-0.4 5.2 0 0-0.4-1.8-1.2-5.1-0.4-1.6-1-3.7-1.7-6-0.6-2.3-1.7-4.8-2.8-7.7-2.4-5.8-5.6-12.4-10.3-19.4-4.6-7-10.6-14.3-18-21.3-7.4-7.1-16.1-13.9-25.9-20.2-9.8-6.4-20.8-12-32.5-16.9-5.9-2.3-11.9-4.7-18.1-6.6-6.2-1.8-12.5-3.5-18.9-4.8-6.4-1.4-12.9-2.3-19.4-2.9-1.6-0.2-3.3-0.3-4.8-0.4-1.7 0-3.4-0.2-4.8-0.1-1.5 0-2.9-0.1-4.5 0l-5.5 0.3-4.2 0.5q-2.5 0.2-5 0.6c-3.3 0.5-6.6 1.1-9.9 1.7-6.7 1.3-13.2 2.7-19.6 4.5-6.5 1.8-12.8 3.8-18.9 6.1-6.1 2.2-12.2 4.7-17.9 7.3-11.6 5.4-22.3 11.4-32 18-9.6 6.7-18.2 13.8-25.6 21-7.4 7.2-13.5 14.5-18.5 21.4-5 6.9-8.9 13.4-11.9 18.8-1.4 2.8-2.7 5.3-3.7 7.5-1.1 2.2-2 4.1-2.6 5.6-1.4 3.1-2.1 4.8-2.1 4.8zm8 14.7c0 0 0.9-1.3 2.6-3.6 0.8-1.1 2-2.3 3.4-3.6 1.5-1.5 3.2-2.8 5.2-4.2 2-1.4 4.3-2.6 6.7-4 2.4-1.1 5.1-2.3 8-3.2 2.7-1 5.8-1.8 8.8-2.4 3.1-0.6 6.2-0.9 9.4-1.1 3.1-0.1 6.3-0.2 9.4 0.1 3.1 0.1 6.2 0.7 9.1 1.3 2.9 0.7 5.6 1.4 8.2 2.4 2.6 1 4.9 1.9 7.1 3.1 1 0.6 2 1.2 3 1.7 0.9 0.7 1.8 1.2 2.5 1.8 1.6 1.2 3 2.2 3.9 3.3 2 2 3 3.3 3 3.3 0 0-1.7 0.1-4.4 0-1.3-0.1-2.9 0-4.8 0q-2.6-0.1-5.9 0c-2.1-0.1-4.4 0.1-6.8 0.1-2.3 0-4.9 0.1-7.4 0.1-1.3 0.1-2.6 0.1-3.9 0.1-1.3 0-2.6 0.2-4 0.2-2.6 0.1-5.3 0.3-8 0.4-2.7 0.2-5.4 0.2-8.1 0.5-1.3 0.1-2.6 0.2-4 0.3-1.3 0.1-2.5 0.2-3.9 0.3-2.5 0.2-5 0.4-7.3 0.6-2.4 0.3-4.7 0.4-6.8 0.7-2.2 0.3-4.2 0.5-5.8 0.7-1.7 0.3-3.4 0.3-4.7 0.6-2.8 0.4-4.5 0.5-4.5 0.5zm118.7 0c0 0 1.1-1.3 3.2-3.5 2.2-2.2 5.5-5 9.9-7.9 4.2-2.8 9.5-5.7 15.6-8.1 1.5-0.6 2.9-1.1 4.6-1.6 1.6-0.6 3.2-1.1 4.9-1.5q5-1.3 10.2-2c3.5-0.4 7.1-0.7 10.6-0.5 3.6 0 7.1 0.4 10.5 1.1 3.3 0.6 6.6 1.6 9.5 2.9 3 1.2 5.7 2.7 7.9 4.3q1.7 1.3 3.2 2.5c0.8 1 1.7 1.7 2.4 2.6 1.5 1.7 2.6 3.3 3.4 4.7 0.8 1.3 1.2 2.5 1.6 3.3 0.3 0.7 0.4 1.1 0.4 1.1 0 0-0.4-0.1-1.2-0.4-0.7-0.3-1.8-0.9-3.1-1.3-1.4-0.6-3-1.1-4.8-1.6-1.9-0.5-3.9-1-6.1-1.4-1.1-0.1-2.2-0.4-3.4-0.4-1.2-0.2-2.4-0.3-3.6-0.4-2.5-0.1-5.1-0.2-7.8-0.1-1.4 0.1-2.8 0.1-4.2 0.1-1.4 0.1-2.8 0.2-4.2 0.4-2.9 0.2-5.9 0.5-8.8 0.9-3 0.3-6 0.8-9 1.2-3 0.5-6 0.9-8.8 1.4-2.9 0.5-5.7 0.9-8.4 1.4-2.8 0.3-5.3 0.7-7.7 1.1-4.9 0.7-9 1.1-12 1.4-1.5 0.2-2.8 0.2-3.6 0.3-0.8 0-1.2 0-1.2 0zm123.8 5.2c0 0 0.1-0.5 0.3-1.1 0.3-0.8 0.6-1.8 1.4-3.1 0.7-1.4 1.6-2.8 2.9-4.4 1.3-1.6 2.8-3.3 4.7-5 1.9-1.7 4.1-3.3 6.5-4.8q3.7-2.2 8-3.9c1.5-0.7 3-1.2 4.4-1.7q2.3-0.7 4.7-1.3c3.1-0.7 6.3-1.3 9.6-1.6 3.3-0.3 6.6-0.3 9.8-0.1 1.7 0.1 3.3 0.3 4.8 0.5 1.6 0.3 3.2 0.6 4.7 0.9 3.1 0.7 6 1.6 8.7 2.8 2.7 1.2 5.1 2.6 7.2 4.1 2.1 1.5 3.9 3.1 5.3 4.7 0.7 0.8 1.3 1.6 1.8 2.4 0.5 0.7 1 1.4 1.3 2.1 0.7 1.3 1 2.4 1.2 3.2 0.2 0.7 0.3 1.1 0.3 1.1q0 0-1.1-0.5c-0.3-0.1-0.7-0.4-1.2-0.5-0.5-0.3-1-0.5-1.7-0.7-0.6-0.2-1.3-0.4-2.1-0.7-0.7-0.2-1.5-0.4-2.3-0.6-1.7-0.4-3.6-0.7-5.6-1-2-0.2-4.2-0.4-6.5-0.5-2.3-0.2-4.7-0.1-7.3-0.1-4.9 0.1-10.4 0.3-15.7 0.8-5.4 0.5-10.8 1.1-15.9 1.9q-3.9 0.5-7.3 1.2c-2.4 0.5-4.6 0.9-6.7 1.4-2.1 0.4-4 1-5.7 1.4-1.7 0.6-3.2 1-4.4 1.5-1.2 0.4-2.4 0.8-3.1 1.1-0.7 0.4-1 0.5-1 0.5zm-136.7 25.8c0 0 0.7 2.7 1.6 7.5 0.4 2.4 1 5.3 1.6 8.5 0.4 1.6 0.7 3.3 1 5.2 0.4 1.8 0.8 3.7 1.2 5.7 1.5 7.9 3.3 17.1 5.1 27 0.6 2.5 1 5 1.5 7.5 0.5 2.6 1 5.2 1.4 7.8 0.9 5.2 1.9 10.6 2.7 15.9 0.8 5.4 1.6 10.7 2.3 16.1 0.3 2.6 0.6 5.2 0.9 7.8 0.2 2.7 0.6 5.3 0.8 7.8 0.4 5.2 0.7 10.1 0.8 14.9 0.1 2.3 0.2 4.7 0.2 6.9 0 2.2 0 4.4-0.1 6.5-0.1 4.1-0.3 8-0.6 11.3-0.3 3.4-0.6 6.3-1 8.8-0.7 4.8-1.4 7.6-1.4 7.6 0 0-0.9-2.8-2.2-7.4-0.7-2.3-1.4-5.2-2.3-8.4-0.8-3.2-1.8-6.9-2.8-10.8-1-3.9-2-8.2-3.1-12.7-1.1-4.6-2.2-9.3-3.2-14.3q-1.7-7.4-3.2-15.3c-1-5.3-1.9-10.7-2.8-16-0.8-5.4-1.6-10.8-2.2-16.2-0.6-5.4-1-10.7-1.3-15.9-0.3-5.1-0.4-10.1-0.4-14.9 0-4.8 0.1-9.3 0.6-13.5 0.1-2.1 0.3-4.1 0.5-6 0.3-1.8 0.5-3.6 0.8-5.3 0.5-3.5 1-6.3 1.6-8.7 1.1-4.7 2-7.4 2-7.4zm118.6-7.8c0 0 0.7 2.9 1.5 7.8 0.4 2.4 0.8 5.5 1.3 8.9 0.3 1.7 0.4 3.5 0.6 5.4 0.2 2 0.2 4 0.2 6.2 0.2 4.3 0.2 8.9 0.2 13.9 0 2.6-0.2 5.1-0.5 7.6-0.1 2.6-0.4 5.1-0.6 7.8-0.5 5.3-1.1 10.8-2 16.3-0.9 5.5-1.9 11.1-3 16.5-1.2 5.5-2.3 11-3.6 16.4-1.2 5.4-2.6 10.6-4 15.6-1.3 5.1-2.8 9.9-4 14.5q-2.1 6.9-3.9 13c-1.4 4-2.5 7.7-3.6 10.9q-1.5 5-2.8 8.5c-1.8 4.7-2.9 7.4-2.9 7.4 0 0-0.4-2.9-0.7-7.9-0.2-2.5-0.3-5.5-0.4-9-0.1-3.4-0.1-7.4 0.1-11.7 0.2-4.2 0.5-8.8 0.9-13.7 0.4-4.9 1-9.9 1.7-15.1 0.4-2.6 0.8-5.2 1.2-7.9 0.4-2.7 0.8-5.4 1.4-8.1 0.9-5.5 2-10.9 3.1-16.4 1.1-5.4 2.2-10.8 3.4-16.2 0.5-2.7 1.2-5.3 1.8-7.9 0.5-2.6 1-5.2 1.6-7.7 1.1-5 2.5-9.9 3.4-14.5q1.5-6.8 3-12.9 0.7-3.1 1.5-5.9c0.3-1.9 0.7-3.7 1.1-5.4 0.6-3.3 1.3-6.3 1.9-8.7 1.2-4.9 2.1-7.7 2.1-7.7z"/>
</svg>