<svg width="38" height="27" viewBox="0 0 38 27" fill="none" xmlns="http://www.w3.org/2000/svg">
<path d="M16.7552 0V1.70886C11.454 4.63889 8.18369 8.3523 6.94035 12.8491C8.28764 12.0119 9.507 11.5895 10.6104 11.5895C12.4454 11.5895 13.9926 12.3 15.256 13.7246C16.5193 15.1455 17.151 16.8889 17.151 18.9472C17.151 21.2244 16.3234 23.1368 14.6603 24.6806C13.0012 26.2243 10.9542 27 8.53151 27C6.10479 27 4.07785 26.0169 2.44671 24.0508C0.81557 22.0846 0 19.6385 0 16.7123C0 12.5918 1.64314 8.8976 4.92541 5.63348C8.20368 2.36936 12.1496 0.491537 16.7552 0ZM37.6042 0V1.70886C32.303 4.63889 29.0327 8.3523 27.7894 12.8491C29.1367 12.0119 30.368 11.5895 31.4914 11.5895C33.3065 11.5895 34.8417 12.3 36.109 13.7246C37.3723 15.1455 38 16.8889 38 18.9472C38 21.2244 37.1764 23.1368 35.5253 24.6806C33.8742 26.2243 31.8352 27 29.4125 27C26.9658 27 24.9309 26.0169 23.3117 24.0508C21.6926 22.0846 20.881 19.6385 20.881 16.7123C20.881 12.5918 22.5161 8.8976 25.7904 5.63348C29.0607 2.36936 32.9986 0.491537 37.6042 0Z" fill="#5B352C"/>
</svg>
