<svg width="38" height="27" viewBox="0 0 38 27" fill="none" xmlns="http://www.w3.org/2000/svg">
<path d="M21.2488 27V25.2947C26.546 22.3643 29.8163 18.6504 31.0597 14.1491C29.7164 14.9902 28.493 15.4127 27.3936 15.4127C25.5585 15.4127 24.0074 14.6983 22.744 13.2772C21.4807 11.8523 20.849 10.1125 20.849 8.05007C20.849 5.77255 21.6806 3.85989 23.3397 2.31593C25.0028 0.771977 27.0458 0 29.4685 0C31.8952 0 33.9221 0.983215 35.5533 2.94964C37.1844 4.91223 38 7.35875 38 10.2853C38 14.4102 36.3609 18.1011 33.0786 21.3696C29.7963 24.6341 25.8504 26.5122 21.2488 27ZM0.395792 27V25.2947C5.697 22.3643 8.96728 18.6504 10.2106 14.1491C8.86733 14.9902 7.63198 15.4127 6.51257 15.4127C4.69753 15.4127 3.15834 14.6983 1.895 13.2772C0.631667 11.8523 0 10.1125 0 8.05007C0 5.77255 0.823567 3.85989 2.4747 2.31593C4.12583 0.771977 6.16475 0 8.59148 0C11.0342 0 13.0691 0.983215 14.6883 2.94964C16.3074 4.91223 17.119 7.35875 17.119 10.2853C17.119 14.4102 15.4839 18.1011 12.2136 21.3696C8.94329 24.6341 5.00137 26.5122 0.395792 27Z" fill="#5B352C"/>
</svg>
